<?xml version="1.0" standalone="no"?>
<!DOCTYPE svg PUBLIC "-//W3C//DTD SVG 1.1//EN" "http://www.w3.org/Graphics/SVG/1.1/DTD/svg11.dtd" >
<svg xmlns="http://www.w3.org/2000/svg">
<metadata>Generated by IcoMoon</metadata>
<defs>
<font id="icomoon" horiz-adv-x="1024">
<font-face units-per-em="1024" ascent="960" descent="-64" />
<missing-glyph horiz-adv-x="1024" />
<glyph unicode="&#x20;" d="" horiz-adv-x="512" />
<glyph unicode="&#xe600;" d="M686.080 119.426c33.915 0 61.481 27.587 61.481 61.522 0 33.915-27.566 61.42-61.481 61.42s-61.44-27.505-61.44-61.42c0-33.935 27.525-61.522 61.44-61.522zM686.080 283.307c56.607 0 102.441-45.814 102.441-102.359 0-56.648-45.834-102.461-102.441-102.461-56.566 0-102.359 45.814-102.359 102.461 0 56.545 45.793 102.359 102.359 102.359zM276.5 119.426c33.935 0 61.44 27.587 61.44 61.522 0 33.915-27.505 61.42-61.44 61.42-33.915 0-61.42-27.505-61.42-61.42 0-33.935 27.505-61.522 61.42-61.522zM276.5 283.307c56.566 0 102.38-45.814 102.38-102.359 0-56.648-45.814-102.461-102.38-102.461-56.545 0-102.441 45.814-102.441 102.461 0.020 56.545 45.916 102.359 102.441 102.359zM378.88 406.146h-61.42v61.501h-61.42v61.42h61.42v61.44h61.42v-61.44h61.44v-61.42h-61.44v-61.501zM848.077 447.188l-108.913 184.259c-6.676 11.305-21.238 20.48-32.604 20.48h-122.839c-11.325 0-20.48-9.175-20.48-20.48v-184.259c0-11.325 9.155-20.48 20.48-20.48h256.041c11.284 0 14.991 9.155 8.315 20.48zM348.201 631.447c-73.544 0-133.12-59.576-133.12-133.12 0-73.462 59.576-133.12 133.12-133.12 73.482 0 133.12 59.658 133.12 133.12 0 73.544-59.638 133.12-133.12 133.12zM931.84 180.948h-102.359c0 79.155-64.164 143.299-143.401 143.299-79.155 0-143.319-64.143-143.319-143.299h-122.921c0 79.155-64.143 143.299-143.319 143.299-79.155 0-143.38-64.143-143.38-143.299h-40.96c-11.305 0-20.46 9.155-20.46 20.46v40.96c-0.020 11.305 9.155 20.46 20.439 20.46v409.641c0 11.305 9.175 20.48 20.48 20.48h430.1v20.46h20.48v30.679c0 16.998 13.763 30.74 30.761 30.74 16.937 0 30.659-13.742 30.659-30.74v-30.679h20.48v-20.46h102.441c11.325 0 20.48-9.175 20.48-20.48l143.319-245.76c11.325 0 20.48-9.236 20.48-20.562v-143.319c11.325 0 20.48-9.155 20.48-20.46v-40.96c0-11.305-9.155-20.46-20.48-20.46z" />
<glyph unicode="&#xe601;" d="M612.168-75.134h-40.96l-1.536 64.082 44.216 6.369-1.72-70.451zM653.128 825.986c0 33.997-27.525 61.481-61.44 61.481s-61.399-27.505-61.399-61.481c0-33.935 27.484-61.44 61.399-61.44s61.44 27.505 61.44 61.44zM776.684 559.726c0-56.545-56.75-102.359-113.275-102.359h-112.64c-51.896 0-81.92-27.505-81.92-61.42 0-33.956 21.074-61.44 81.92-61.44h10.486l-2.007 81.9h64.922l-2.007-81.9h10.486c56.566 0 102.441-35.635 102.441-92.16 0-56.566-45.875-92.201-102.441-92.201h-81.859c-19.231 0-40.96-16.609-40.96-40.919 0-19.886 7.025-40.96 40.96-40.96l17.039-2.437-1.024 43.397h49.91l-1.27-50.196 78.725-11.325-143.36-20.48c-56.545 0-81.92 40.755-81.92 82.002 0 43.766 40.059 81.879 81.92 81.879h13.967l-1.475 61.44h56.914l-1.475-61.44h13.967c33.915 0 61.481 17.326 61.481 51.241s-27.566 51.118-61.481 51.118h-81.9c-78.356 0-122.86 45.916-122.86 102.482 0 56.545 40.735 102.359 122.86 102.359h6.472l-2.007 81.981h72.888l-2.007-81.981h37.274c33.915 0 61.399 27.505 61.399 61.42 0 33.997-27.484 61.501-61.399 61.501 0 0-14.008 0.819-34.243 1.475v-1.475h-74.957l-0.041 2.437c-15.524-0.225-30.761-0.881-44.134-2.068l9.38-25.805c10.506-28.815-79.38-32.952-118.927-20.623-5.919 1.843-10.568 3.973-14.623 6.287-40.96-14.479-85.381-19.292-123.658-41.103 32.952 27.197 52.859 35.471 88.76 54.62-40.878-5.243-65.7 0.451-103.629-12.861 36.741 20.992 79.237 26.092 118.702 39.322 1.106 6.001 3.994 13.373 9.523 21.955 22.323 34.959 93.737 89.723 104.223 60.908l9.175-25.19c17.592 3.318 40.346 5.018 63.713 5.693l-1.126 47.002c-36.516 15.667-62.239 51.896-62.239 94.167 0 56.607 45.834 102.441 102.359 102.441 56.566 0 102.441-45.834 102.441-102.441 0-42.271-25.723-78.5-62.28-94.167l-1.126-47.596c19.517-0.737 32.686-1.556 32.686-1.556 56.504 0.020 113.275-66.294 113.275-122.921z" />
<glyph unicode="&#xe602;" d="M698.122 287.157c22.753 2.683 40.284-12.206 43.315-31.805 2.478-16.671 7.68-32.276 14.090-47.35-19.927-22.241-42.844-41.759-68.28-57.876-13.681 25.272-23.122 52.92-27.484 82.35-3.994 26.788 15.708 52.081 38.359 54.682zM611.41 143.142c9.236-3.604 16.63-11.366 21.361-20.91-26.358-10.486-54.395-17.715-83.681-20.951 4.362 7.25 8.888 14.479 12.288 22.405 8.069 18.145 28.733 27.976 50.033 19.456zM384.799 311.631c2.58 22.61 27.873 42.353 54.702 38.359 63.263-9.4 118.702-41.39 158.454-91.525 16.916-21.197 12.39-53.002-5.919-66.519-18.33-13.681-40.96-9.605-53.35 5.837-30.659 38.605-73.318 63.283-122.102 70.513-19.579 3.052-34.447 20.562-31.785 43.336zM289.157 257.338c18.412 13.681 40.96 9.564 53.371-5.919 30.679-38.564 73.4-63.16 122.102-70.472 19.661-3.031 34.447-20.48 31.785-43.233-1.7-15.237-13.824-29-29.635-35.287-71.987 9.994-136.581 43.049-185.754 91.791-13.906 21.176-9.236 50.278 8.131 63.119zM255.078 496.995c-19.436 7.68-39.465 11.899-59.658 13.066 7.68 29.368 19.292 56.996 34.365 82.493 15.606-2.97 31.048-7.393 46.264-13.373 25.211-9.892 37.253-39.69 28.16-60.539-9.073-21.074-30.659-28.836-49.132-21.647zM304.005 337.272c-37.99-4.362-75.244 0-110.121 12.206-6.062 24.76-9.544 50.565-9.544 77.23 0 7.025 0.594 13.967 1.044 20.91 36.004-21.443 77.312-30.372 119.583-25.498 19.743 2.13 38.584-10.936 41.902-33.649 3.338-22.528-15.954-48.128-42.865-51.2zM387.604 472.89c-38.134 51.446-54.702 113.234-47.37 176.804 3.031 26.972 28.672 46.203 51.22 42.865 22.692-3.318 35.697-22.159 33.567-41.902-5.612-48.947 7.168-96.604 36.516-136.151 11.756-16.036 9.83-38.871-8.131-53.064-17.818-14.193-49.684-10.363-65.802 11.448zM515.256 572.976c-21.074 9.093-28.754 30.679-21.586 49.172 16.855 42.701 17.285 88.31 2.806 131.42 5.181 0.205 10.281 0.778 15.524 0.778 25.989 0 51.2-3.4 75.51-9.093 10.527-47.964 6.717-97.423-11.674-144.138-9.953-25.19-39.649-37.233-60.58-28.14zM697.528 553.909c13.681-18.35 9.605-40.96-5.919-53.371-38.605-30.679-63.201-73.318-70.431-122.102-3.113-19.558-20.562-34.447-43.315-31.764-22.61 2.56-42.394 27.832-38.359 54.682 9.4 63.263 41.39 118.702 91.525 158.474 21.176 16.916 52.9 12.411 66.499-5.919zM644.076 664.767c-7.475 17.285-0.43 40.509 16.486 53.658 31.805-16.2 60.6-37.253 85.361-62.525-17.797-1.7-35.471-5.939-52.675-12.739-18.493-7.148-40.079 0.614-49.172 21.606zM805.724 282.099c-20.48 36.68-51.159 65.556-90.317 82.555-18.125 8.008-27.914 28.754-19.517 50.053 8.356 21.217 37.929 33.71 62.751 22.917 29.798-12.943 56.033-30.904 78.008-53.125-4.69-36.393-15.319-70.84-30.925-102.4zM763.802 540.966c3.277 22.118 21.238 34.755 40.366 33.505 13.599-26.849 23.716-55.747 29.512-86.262-8.97 0.061-17.92 0.512-26.993 1.556-26.89 3.072-46.203 28.652-42.885 51.2zM512 795.307c-202.895 0-367.35-165.048-367.35-368.62 0-203.612 164.454-368.66 367.35-368.66 202.875 0 367.35 165.048 367.35 368.66 0.020 203.571-164.475 368.62-367.35 368.62zM512-3.413c-237.568 0-430.1 192.553-430.1 430.1 0 237.486 192.532 430.039 430.1 430.039 237.466 0 430.080-192.553 430.080-430.039 0-237.548-192.594-430.1-430.080-430.1z" />
<glyph unicode="&#xe603;" d="M553.82 304.463h-81.879v81.879h-81.9v81.9h81.9v81.961h81.879v-81.961h81.9v-81.9h-81.9v-81.879zM820.449 734.707c-24.003 24.023-62.874 24.023-86.917 0-23.962-24.023-23.962-62.894 0-86.917 24.044-23.941 62.915-23.941 86.917 0 23.941 24.003 23.941 62.894 0 86.917zM512.881 611.642c-101.786 0-184.34-82.555-184.34-184.32 0-101.786 82.555-184.34 184.34-184.34s184.361 82.555 184.361 184.34c0 101.745-82.575 184.32-184.361 184.32zM864.44 463.224c-0.963-1.188-1.393-2.58-2.519-3.707l-389.1-390.984c-15.954-15.974-41.923-15.974-57.876 0l-260.71 260.69c-15.954 16.036-15.954 41.902 0 57.938l391.025 391.004c0.061 0.061 0.143 0.061 0.225 0.143 8.581 12.636 23.142 18.842 39.834 18.473l243.63-1.024c26.87-0.594 51.077-24.76 51.63-51.671l1.126-243.63c0.287-15.217-6.554-28.508-17.265-37.233z" />
<glyph unicode="&#xe604;" d="M317.338 139.947c22.61 0 40.94 18.35 40.94 40.96s-18.33 40.94-40.94 40.94-40.94-18.33-40.94-40.94c0-22.61 18.33-40.96 40.94-40.96zM665.477 139.947c22.63 0 40.96 18.35 40.96 40.96s-18.33 40.94-40.96 40.94c-22.61 0-40.96-18.35-40.96-40.94 0-22.61 18.371-40.96 40.96-40.96zM317.338 262.786c15.606 0 30.024-4.588 42.414-12.124l102.687 102.605-114.36 114.34h57.958l85.34-85.381 85.34 85.381h57.958l-114.299-114.34 102.605-102.605c12.39 7.537 26.87 12.124 42.476 12.124 45.24 0 81.92-36.659 81.92-81.879 0-45.24-36.68-81.92-81.92-81.92s-81.879 36.68-81.879 81.92c0 14.705 4.116 28.385 10.916 40.284l-103.137 103.096-103.178-103.096c6.799-11.899 11.018-25.58 11.018-40.284 0-45.24-36.659-81.92-81.9-81.92s-81.961 36.68-81.961 81.92c0.041 45.22 36.762 81.879 82.002 81.879zM214.61 611.007c-59.146 0-111.329 28.385-142.807 71.619 31.478 43.315 83.661 71.7 142.807 71.7s111.329-28.385 142.807-71.7c-31.498-43.233-83.681-71.619-142.807-71.619zM911.237 631.487c-3.154 0-6.287 0.43-9.236 1.106l-93.123-93.204v-51.302h-655.401v81.981h628.122l90.644 90.542c-1.126 3.768-1.925 7.68-1.925 11.817 0 22.61 18.33 40.96 40.919 40.96 22.63 0 40.96-18.35 40.96-40.96s-18.309-40.94-40.96-40.94z" />
<glyph unicode="&#xe605;" d="M676.803 397.585c-27.566-15.77-51.671-38.769-68.833-68.362-17.039-29.594-24.965-61.87-24.801-93.512 55.89 26.604 94.761 83.005 94.761 149.074 0 4.362-0.758 8.52-1.126 12.8zM512.020 550.653c-34.959 0-67.318-10.936-94.085-29.43 27.566-16.261 59.638-25.723 94.167-25.723 34.447 0 66.601 9.462 94.167 25.723-26.747 18.493-59.187 29.43-94.249 29.43zM347.341 398.179c-0.369-4.444-1.188-8.806-1.188-13.394 0-66.089 38.748-123.003 94.679-149.688 0.389 32.072-7.455 64.84-24.76 94.761-17.039 29.655-41.144 52.572-68.731 68.321zM512.020 329.51c30.536 0 55.296 24.76 55.296 55.276 0 30.536-24.76 55.276-55.296 55.276-30.515 0-55.276-24.74-55.276-55.276 0-30.515 24.76-55.276 55.276-55.276zM942.735 258.465c-4.874 56.566-35.758 109.486-87.88 139.633-39.014 22.528-83.169 28.283-124.396 19.784 1.638-10.772 2.826-21.791 2.826-33.116 0-93.798-58.47-173.568-140.882-205.681 13.271-40.161 40.284-75.551 79.38-98.12 52.183-30.126 113.377-30.351 164.823-6.369-72.069-49.48-166.748-57.569-245.043-12.329-34.079 19.64-61.051 47.084-80.036 78.991-18.944-31.56-45.24-58.798-79.012-78.316-78.275-45.24-173.036-37.192-245.105 12.329 51.446-24.003 112.722-23.716 164.905 6.369 38.81 22.405 65.782 57.528 79.155 97.28-82.268 32.236-140.575 112.128-140.575 205.844 0 11.51 1.27 22.692 2.97 33.71-41.329 8.561-85.524 2.806-124.621-19.743-52.183-30.167-83.026-83.087-87.962-139.51-6.799 87.040 33.567 173.158 111.821 218.317 33.853 19.579 70.963 29.204 107.848 29.778-17.797 32.154-28.221 68.526-28.221 107.397 0 90.399 54.395 168.387 133.263 206.070-46.51-32.522-76.943-85.75-76.943-145.981 0-44.933 16.998-85.975 44.933-117.453 37.847 30.29 85.791 48.558 138.056 48.558 52.326 0 100.25-18.186 138.179-48.558 27.935 31.478 44.995 72.438 44.995 117.453 0 60.232-30.433 113.459-76.964 145.981 78.889-37.704 133.304-115.671 133.304-206.070 0-39.178-10.588-75.756-28.611-108.052 37.048-0.594 74.056-10.199 108.052-29.778 78.254-45.158 118.62-131.256 111.739-218.419z" />
<glyph unicode="&#xe606;" d="M552.858 379.788c-13.21-1.638-40.858-42.148-40.858-42.148s-29.573 40.653-43.602 42.414c-92.16 12.063-161.137 61.215-161.137 120.115 40.96 0 327.68 0 409.559 0-0.020-59.474-70.451-109.076-163.963-120.381zM747.11 655.265c0 0-48.353-31.498-76.575-11.674-41.247 28.959-98.161 42.557-158.536 42.557-66.458 0-125.133-21.873-171.049-50.913-24.822-15.667-55.439 16.179-55.439 16.179s23.429-40.346 2.58-65.393c-21.422-25.805-21.873-47.596-21.873-80.343 0-89.149 88.044-164.618 204.001-177.848 22.774-2.601 41.779-58.409 41.779-58.409s18.985 55.808 53.146 60.027c110.776 13.742 192.614 89.969 192.614 176.21 0 29.921-15.319 55.132-27.443 83.005-9.38 21.504 16.794 66.601 16.794 66.601zM866.038 725.265c0 0 8.274 6.717-32.604-34.161-54.231-54.231-44.114-63.119-33.772-98.529 12.411-25.661 19.579-53.228 19.579-82.125 0-101.048-83.149-186.941-199.639-220.426-49.5-27.423-66.601-72.069-66.601-149.955 0-32.010 0-53.228 0-53.228s0-19.292-41.001-19.292c-40.96 0-40.96 19.292-40.96 19.292s0 21.197 0 53.228c0 77.906-17.060 122.532-66.601 149.955-116.552 33.505-199.639 119.398-199.639 220.447 0 28.897 7.168 56.463 19.599 82.125 10.342 35.41 17.9 46.858-33.772 98.529-40.878 40.878-32.666 34.161-32.666 34.161s-13.476 13.804 15.933 42.312c26.092 25.436 39.547 17.388 42.209 15.237-0.061-0.082 3.256-4.608 33.198-34.591 57.283-57.221 64.901-46.797 109.752-33.772 45.097 19.948 97.198 31.478 152.945 31.478 55.808 0 107.909-11.51 153.006-31.478 44.79-13.025 58.839-17.080 109.67 33.772 30.003 30.003 33.341 34.529 33.26 34.591 2.662 2.13 16.097 10.199 42.23-15.237 29.307-28.508 15.872-42.332 15.872-42.332z" />
<glyph unicode="&#xe607;" d="M256 199.749h259.973c-31.437 0-59.372-15.954-78.807-40.919h-181.166c-16.998 0-30.74-13.763-30.74-30.679 0-16.998 13.742-30.761 30.74-30.761h197.263c8.643 35.287 38.953 61.44 75.244 61.44h69.325c43.090 0 78.070-36.68 78.070-81.92s-34.959-81.879-78.070-81.879h-69.325c-36.291 0-66.601 26.153-75.244 61.399h-197.263c-39.608 0-71.68 32.072-71.68 71.721 0 39.526 32.072 71.598 71.68 71.598zM554.332 361.356c105.759-9.83 149.606-33.915 126.157-59.126h87.511c39.547 0 71.68-32.072 71.68-71.721 0-39.608-32.133-71.68-71.68-71.68h-78.807c-19.436 24.965-47.37 40.919-78.807 40.919h157.594c16.916 0 30.679 13.844 30.679 30.761 0 16.998-13.763 30.761-30.679 30.761h-337.9c-118.047-0.512-242.217 9.523-327.66 38.871 0 4.956 0 8.397 0 10.834 0 2.683 0 4.157 0 4.69 145.981 45.691 300.38 60.887 451.912 45.691zM390.164 775.339c0-95.58 0-191.14 0-286.72-0.061-33.772 16.712-62.382 42.209-80.773-111.616-0.819-223.007-19.456-329.953-56.177 0 150.18 0 300.38 0 450.56 106.803 36.659 218.194 55.214 329.585 56.095-25.354-18.903-41.923-49.418-41.841-82.985zM847.974 678.366l-48.763-79.237c0.061-7.905-2.97-15.811-9.032-21.873-11.96-11.96-31.478-11.96-43.438 0-12.001 11.981-12.001 31.498 0 43.459 5.96 6.001 13.885 9.011 21.791 8.95l79.299 48.865c-20.398 20.562-48.62 33.26-79.811 33.26-62.239 0-112.64-50.401-112.64-112.64 0-62.157 50.401-112.558 112.64-112.558 62.157 0 112.64 50.401 112.64 112.558 0 30.863-12.472 58.88-32.686 79.217zM778.22 446.553c0-4.28 0-8.643 0-12.923 0-45.322-35.553-69.325-80.364-57.979-60.826 15.524-122.757 25.436-184.914 29.798-45.752 3.256-83.005 39.096-83.005 84.419 0 95.56 0 191.14 0 286.72 0 45.158 37.253 82.698 83.005 79.442 62.157-4.362 124.109-14.254 184.914-29.778 34.243-8.724 62.915-39.69 74.609-73.892 82.555-2.437 149.156-69.939 149.156-153.231 0-81.306-63.447-147.251-143.401-152.576z" />
<glyph unicode="&#xe608;" d="M777.277 400.002c-6.513 23.429-74.875 58.388-96.113 75.039-21.197 16.63-75.756-11.51-95.191-20.48-19.517-8.95-13.435-43.909-11.284-63.14 2.191-19.149 18.596-41.329 34.202-44.728 15.606-3.461 37.642-3.011 61.87-10.711 24.248-7.68 28.59-40.059 16.916-59.29-11.756-19.149-36.352-49.439-45.486-81.449-9.073-31.949 8.684-64.758 50.647-73.789 42.004-8.95 54.129 22.61 56.73 40.53 2.56 17.961 0 43.52 3.441 90.46 3.4 46.879 30.679 124.068 24.269 147.558zM761.61 480.427c-4.526 4.792-17.449 1.843-18.289-4.792-0.717-6.226-3.4-9.912-3.604-18.043-0.246-7.537 0.43-12.288 7.926-12.063 7.762 0.225 10.916 7.987 15.995 16.2 5.632 9.032 2.396 14.049-2.028 18.698zM729.887 505.495c-6.799 7.086-23.368 5.1-23.204-2.908 0.164-7.168-2.355-10.691-1.311-19.21 0.963-7.475 2.273-12.124 10.404-13.906 8.97-1.925 12.124 5.018 18.125 12.636 7.414 9.421 2.58 16.507-4.014 23.388zM698.552 527.654c-6.881 6.881-23.962 4.956-24.392-2.13-0.43-6.124-2.97-9.011-2.601-16.261 0.287-6.205 1.208-10.199 8.561-12.861 8.724-3.092 12.882 2.519 20.398 8.581 10.158 8.274 5.038 15.565-1.966 22.671zM629.514 532.18c2.56-7.7 1.475-13.373 6.042-24.187 4.608-10.772 8.643-17.572 18.207-13.373 9.523 4.301 7.434 16.507 7.434 29.061 0 12.472-6.554 16.773-14.111 20.173-7.455 3.4-20.173-3.994-17.572-11.674zM572.518 485.67c13.435-14.049 15.155-16.63 15.155-16.63s6.636 8.786 16.998 13.967c10.404 5.1 18.473 9.093 18.473 9.093s1.761 15.299-5.202 39.158c-6.922 23.962-35.041 22.61-49.725 8.131-14.705-14.459-9.052-39.588 4.301-53.719zM350.556 727.231c13.292-38.748 26.624-77.455 39.834-116.285 28.242 9.687 57.446 15.77 86.774 18.555l-43.848 73.011 35.123 21.074 55.665-92.611c37.929-1.126 75.694-7.537 112.046-20.050 13.312 38.83 26.604 77.537 39.916 116.285-105.472 36.168-220.037 36.168-325.509 0.020zM326.82 527.654c-7.107-7.107-12.206-14.397-2.007-22.671 7.537-6.062 11.592-11.674 20.316-8.581 7.475 2.662 8.356 6.656 8.663 12.861 0.369 7.25-2.13 10.138-2.601 16.261-0.43 7.086-17.49 9.011-24.371 2.13zM295.485 505.495c-6.574-6.881-11.469-13.988-4.055-23.368 6.062-7.619 9.236-14.561 18.186-12.636 8.11 1.782 9.462 6.41 10.342 13.906 1.126 8.499-1.393 12.042-1.311 19.21 0.123 7.987-16.445 9.974-23.163 2.888zM281.969 475.635c-0.819 6.636-13.763 9.605-18.268 4.792-4.362-4.669-7.619-9.687-2.007-18.698 5.018-8.212 8.192-15.974 16.036-16.2 7.455-0.225 8.069 4.526 7.905 12.063-0.205 8.131-2.929 11.817-3.666 18.043zM395.878 532.18c2.58 7.68-10.138 15.073-17.674 11.674-7.455-3.4-14.111-7.7-14.111-20.173 0-12.554-1.987-24.76 7.537-29.061 9.462-4.198 13.537 2.601 18.207 13.373 4.547 10.813 3.379 16.486 6.042 24.187zM457.134 539.409c-14.705 14.479-42.865 15.811-49.746-8.131-6.943-23.859-5.243-39.158-5.243-39.158s8.11-3.994 18.473-9.093c10.424-5.181 17.060-13.967 17.060-13.967s1.7 2.58 15.073 16.63c13.476 14.111 19.108 39.24 4.383 53.719zM272.343 252.464c3.482-46.94 0.881-72.499 3.482-90.46 2.58-17.9 14.705-49.459 56.689-40.53 42.004 9.011 59.74 41.841 50.647 73.789-9.093 31.99-33.772 62.3-45.466 81.449-11.674 19.21-7.311 51.61 16.855 59.29 24.248 7.7 46.346 7.25 61.932 10.711 15.524 3.4 31.99 25.58 34.14 44.728 2.13 19.21 8.192 54.19-11.244 63.14-19.497 8.97-73.974 37.11-95.191 20.48-21.197-16.63-89.58-51.61-96.072-75.039-6.513-23.511 20.746-100.7 24.228-147.558zM819.241 58.007h-614.441c-33.935 0-61.44 27.566-61.44 61.501v614.359c0 33.956 27.505 61.44 61.44 61.44h614.441c33.915 0 61.44-27.505 61.44-61.44v-614.38c0-33.915-27.525-61.481-61.44-61.481z" />
<glyph unicode="&#xe609;" d="M406.897 211.443c-16.2-32.973-43.602-138.527-55.951-222.863-14.93-11.080-34.447-1.393-35.635 16.036-1.188 17.51 32.666 156.774 34.734 193.147s-38.359 47.452-13.455 105.349c24.904 57.856 37.929 50.258 37.929 50.258-1.475-49.828 5.919-113.398 32.379-141.926zM680.53 328.302c-6.717-13.455-59.433-81.592-70.881-97.505-11.489-15.872-67.4-41.103-91.3-143.974 32.010 64.737 54.764 84.398 67.564 84.992-2.97-8.888-5.714-18.043-8.008-27.566-18.33-75.489-32.686-167.875-37.478-187.597-4.792-19.743-152.392-2.294-144.261 31.334 5.837 24.166 31.334 123.228 37.253 188.928 25.498-12.636 21.279-92.897 21.279-92.897s40.96 64.963-22.18 136.069c-22.405 25.272-26.911 101.192-24.986 142.52s4.137 72.724 27.484 46.203c23.286-26.542 73.626-53.596 111.063-35.779 37.56 17.879 22.405-14.254 56.197-20.050 33.751-5.837 61.194 16.63 71.168 24.023 10.117 7.414 21.914-18.985 7.086-48.701zM657.244 409.464c-58.409-2.662-61.727 58.532-67.482 81.736-5.714 23.224-33.915 29.573-26.481-9.155 7.557-38.81-16.159-71.188-47.862-72.069-96.399-2.908-87.020 80.568-79.176 166.154 7.762 85.668-26.010 183.685-52.183 254.833-26.153 71.127 144.957 100.516 166.38 45.015 21.484-55.583 40.038-112.865 67.83-196.977-43.52 19.968-84.193 112.271-84.193 112.271s22.753-110.715 119.153-167.424c37.396-28.303 48.046-72.131 51.671-100.598 6.943-54.067 10.65-111.124-47.657-113.787z" />
<glyph unicode="&#xe60a;" d="M619.95 227.663c30.7-34.959 67.932-71.393 174.572-54.845 75.694 11.756 101.786 112.763 101.786 112.763s-28.221 6.001-89.354-13.885c-61.133-19.866-134.308-42.025-187.003-44.032zM620.564 178.511l-39.117 35.676-68.588-13.271c0 0 48.333-66.171 68.813-120.566 28.324-6.001 62.382 2.806 70.963 22.323-10.281 36.516-32.072 75.837-32.072 75.837zM835.645 493.596c57.221-60.109-21.934-80.937-73.236-67.031 9.134 21.955 10.117 51.159 10.117 51.159 3.461-13.906-44.278-68.751-73.175-69.202-4.71 20.705-0.799 28.836-0.799 28.836 0.061-0.082-15.012-43.766-56.771-46.060-41.902-2.888-65.249 26.604-65.188 26.665 11.018-20.398 34.734-48.394 0.819-56.033-34.529-7.311-109.548 10.875-109.629 10.875 0-0.082 27.116-19.354 50.77-24.842-23.286-24.76-66.089-42.639-88.187-34.365 7.762-15.872 48.046-26.317 72.724-24.556-14.787 6.881-28.385 12.083-28.385 12.083s18.104 9.871 33.772 22.958c15.606 13.169 53.576-14.234 78.275-21.033 1.024 4.874-30.167 30.802-30.228 30.802-0.246 0.164 73.38 37.56 100.946 41.554 27.136 4.362 30.843-12.718 25.58-43.643 7.107 3.85 23.572 56.033 23.572 56.033-0.307 0.43 70.226 22.18 101.315 11.96 30.679-9.687 14.582-40.55-12.841-46.633-13.763-3.072-15.606-5.243-11.018-5.591 1.188-0.164 2.744-0.082 4.588 0 1.843 0.164 3.994 0.43 6.431 0.799 4.792 0.758 10.568 2.007 16.63 3.809 24.105 7.25 25.805 12.841 24.187 33.915-1.72 21.053 25.272 27.32 42.476 9.953-2.191 11.039-6.636 18.719-6.717 18.719 0.184 0 34.857 51.098-36.024 78.868zM727.142 584.875c-8.888-17.49-10.117-25.252-10.117-25.252s-42.435 20.685-18.412 45.384c24.105 24.596 36.741 33.628 51.302 35.615-14.561 4.506-39.24-9.093-55.050-27.853 7.598 27.197 3.768 35.615 3.768 35.615s-16.404-65.475-58.839-64.164c-42.394 1.331-33.546 36.291-17.060 54.395-16.486-5.161-17.736-9.011-17.736-9.011l-10.793 20.050c0 0 12.718-54.395-15.135-65.413s-50.033-17.51-57.59 17.51c-7.619 34.959-7.619 39.485-7.619 39.485l-5.693-33.649c0 0-14.561 12.268-33.546 9.011 21.504-14.254 39.26-18.862 49.377-46.060-27.853-13.599-44.933-27.853-63.939-10.998-17.736-3.912-55.665-20.111-55.071 31.13 0.676 51.139-2.519 57.713 6.369 72.581-6.943 0.655-17.736-20.705-17.736-20.705s-4.506 17.51-19.64 25.272c10.138-23.368 39.834-111.596-1.331-121.958-41.103-10.342-66.458 6.574-72.724 49.377-10.793-3.256 1.249-27.853 1.249-27.853s-10.117 13.148-34.591 12.124c40.059-23.798 79.688-59.003 51.22-82.801-28.467-23.716-63.201-19.804-82.862-4.71 12.636-22.61 26.378-35.635 51.22-36.086-7.762-10.117-17.306-23.286-44.503-24.596 8.212-13.599 41.759-0.594 41.759-0.594s2.58-25.948 16.486-39.547c3.768 9.032-12.636 46.653 0.594 62.833 13.292 16.2 20.255 21.361 37.396 27.873 11.96 27.853 39.834 65.393 98.673 57.631 58.9-7.762 61.42-23.286 61.42-23.286l6.943-46.715c0 0 6.349 66.15 29.123 79.094 22.753 12.943 76.554 30.454 79.073-6.492 21.524 26.604 58.921 42.127 74.056 8.417 10.281-22.753 12.124-31.252 12.288-34.386l-0.225-1.925c0 0 0.287 0.389 0.225 1.925l3.543 27.279c0 0 39.916-2.007 66.437-27.197-3.154 14.193-11.387 21.361-11.387 21.361s13.906-8.417 34.816 12.943c-22.753-5.202-63.898-7.107-65.741 34.345zM899.666 369.262c-51.159-65.311-253.46-78.643-372.9-124.232-119.378-45.67-181.76 38.072-149.238 116.408 50.708 122.348 304.148 33.956 322.253 133.345-88.904-55.726-313.979 19.292-390.984-137.318-64.594-5.284-114.053 10.322-143.176 39.076-1.27-0.164-2.437-0.594-3.707-0.594-26.173 0-58.839 34.386-58.839 76.8 0 40.653 24.617 53.146 49.213 55.808 13.312-14.172 41.841-48.476 41.841-48.476s-29.635 72.806-29.635 74.67c0 36.577 17.879 68.362 50.115 75.244-5.919-28.897 9.462-58.839 9.462-58.839s0.881 79.688 15.012 91.054c13.599 13.169 28.897 22.548 43.971 28.078-10.711-35.697 16.916-71.987 16.916-71.987s-8.643 49.377 4.874 77.292c14.705 33.055 47.596 56.259 86.18 56.259 15.012 0 29.041-3.85 41.615-10.056 21.791-14.254 62.525-57.713 62.525-57.713s-20.111 57.426-40.428 76.575c12.739 6.144 33.362 14.172 50.217 14.172 21.955 0 41.759-6.144 55.951-15.954 7.598 2.58 65.188-55.276 65.188-55.276s14.111 32.522-14.868 63.57c39.977 0 74.711-13.824 94.024-34.222 4.362 0.594 8.868 0.963 13.455 0.963 42.209 0 77.373-22.999 88.31-54.108 6.963-1.7-39.69-9.626-39.69-9.626s26.399-30.085 76.964-9.011c11.592-9.155 22.077-21.053 30.351-35.41 12.8-22.18 17.736-45.978 16.2-67.4 14.991-14.275 24.986-36.004 24.986-61.276 0-4.28-0.451-8.356-1.044-12.493 11.244-45.445 7.475-86.323-15.114-115.323z" />
<glyph unicode="&#xe60b;" d="M620.36 56.286c-22.61 0-40.94 18.33-40.94 40.94 0 22.63 18.35 40.96 40.94 40.96 22.63 0 40.96-18.33 40.96-40.96 0-22.61-18.33-40.94-40.96-40.94zM784.241 117.706c-22.61 0-40.96 18.35-40.96 40.96s18.35 40.94 40.96 40.94c22.61 0 40.96-18.35 40.96-40.94 0-22.61-18.371-40.96-40.96-40.96zM477.041 15.347c-11.305 0-20.48 9.155-20.48 20.46 0 11.325 9.175 20.48 20.48 20.48s20.48-9.155 20.48-20.48c0-11.305-9.155-20.46-20.48-20.46zM866.12 76.746c-11.305 0-20.46 9.175-20.46 20.48 0 11.325 9.155 20.48 20.46 20.48 11.325 0 20.48-9.155 20.48-20.48 0-11.305-9.155-20.48-20.48-20.48zM538.481 424.885c-11.325 0-20.48 9.175-20.48 20.48 0 11.325 9.155 20.48 20.48 20.48 11.305 0 20.48-9.155 20.48-20.48 0-11.305-9.175-20.48-20.48-20.48zM651.121 179.146c-16.998 0-30.761 13.722-30.761 30.74 0 16.916 13.763 30.659 30.761 30.659 16.916 0 30.679-13.742 30.679-30.659 0-17.019-13.763-30.74-30.679-30.74zM548.68-25.695c-16.937 0-30.679 13.844-30.679 30.761 0 16.998 13.742 30.74 30.679 30.74 16.998 0 30.74-13.742 30.74-30.74 0-16.916-13.742-30.761-30.74-30.761zM671.601 302.046c-16.998 0-30.761 13.742-30.761 30.679 0 16.998 13.763 30.74 30.761 30.74 16.916 0 30.679-13.742 30.679-30.74 0-16.937-13.763-30.679-30.679-30.679zM753.48-5.133c-16.916 0-30.679 13.742-30.679 30.679 0 16.978 13.763 30.74 30.679 30.74 16.998 0 30.761-13.763 30.761-30.74 0-16.937-13.763-30.679-30.761-30.679zM589.681 342.986c-16.998 0-30.72 13.763-30.72 30.679 0 16.998 13.722 30.761 30.72 30.761 16.937 0 30.679-13.763 30.679-30.761 0-16.916-13.742-30.679-30.679-30.679zM835.379 199.605c-16.916 0-30.659 13.742-30.659 30.74 0 16.937 13.742 30.761 30.659 30.761 16.998 0 30.74-13.824 30.74-30.761 0-16.998-13.742-30.74-30.74-30.74zM771.604 399.019c-119.357 35.471-228.762 98.652-319.242 184.32 6.861 11.837 13.681 23.654 20.48 35.471 90.481-85.668 199.864-148.869 319.324-184.34-6.881-11.796-13.681-23.634-20.562-35.451zM787.64 426.667c-90.399 85.75-199.803 148.869-319.242 184.34 6.799 11.837 13.599 23.654 20.48 35.471 119.46-35.471 228.844-98.652 319.242-184.34-6.799-11.817-13.681-23.654-20.48-35.471zM893.256 610.188l-85.524-148.111-35.471 20.541 83.538 144.63c37.847 65.577 12.923 150.794-55.603 190.341-68.608 39.629-154.849 18.555-192.676-47.002l-83.538-144.65-35.471 20.48 85.504 148.050c48.067 83.292 158.474 109.548 246.661 58.614 88.105-50.872 120.627-159.662 72.581-242.893zM377.405 118.668c-83.21-48.128-191.959-15.606-242.872 72.602-50.934 88.105-24.699 198.513 58.614 246.62l171.192 98.816c0 0 93.43-54.989 140.657-136.806 44.851-77.681 43.602-182.415 43.602-182.415l-171.192-98.816z" />
<glyph unicode="&#xe60c;" d="M389.12 703.188h40.96v-184.34l-117.76-430.019h399.36l-117.76 430.019v184.34h40.96v-163.881l142.193-491.52h-530.166l142.213 491.52v163.881zM655.34 129.768h-286.7l59.351 225.055c0 0 42.865-63.181 84.644 0 41.82 63.119 83.374 0 83.374 0l59.331-225.055zM624.599 744.127h-225.28c-16.937 0-30.679 13.742-30.679 30.761 0 16.916 13.742 30.659 30.679 30.659h225.28c16.998 0 30.74-13.742 30.74-30.679 0-16.998-13.742-30.74-30.74-30.74z" />
<glyph unicode="&#xe60d;" d="M389.12 703.188h40.96v-184.34l-117.76-430.019h399.36l-117.74 430.019v184.34h40.96v-163.881l142.193-491.52h-530.186l142.213 491.52v163.881zM542.72 559.787c-5.612 0-10.199 4.588-10.199 10.281 0 5.612 4.588 10.199 10.199 10.199 5.693 0 10.281-4.588 10.281-10.199 0-5.693-4.588-10.281-10.281-10.281zM542.72 662.228c-5.612 0-10.199 4.588-10.199 10.199 0 5.693 4.588 10.281 10.199 10.281 5.693 0 10.281-4.588 10.281-10.281 0-5.612-4.588-10.199-10.281-10.199zM553.001 436.948c0-11.305-9.175-20.48-20.48-20.48s-20.48 9.155-20.48 20.48 9.175 20.48 20.48 20.48c11.305-0.020 20.48-9.175 20.48-20.48zM573.46 518.847c0-11.305-9.155-20.48-20.46-20.48-11.325 0-20.48 9.155-20.48 20.48 0 11.305 9.155 20.48 20.48 20.48 11.305-0.020 20.46-9.175 20.46-20.48zM553.001 232.148c0-11.325 9.155-20.48 20.46-20.48 11.325 0 20.48 9.155 20.48 20.48 0 11.305-9.155 20.46-20.48 20.46-11.305 0-20.46-9.155-20.46-20.46zM553.001 355.048c-11.325 0-20.48-9.155-20.48-20.541 0-11.325 9.155-20.48 20.48-20.48 11.305 0 20.46 9.155 20.46 20.48 0 11.387-9.155 20.541-20.46 20.541zM501.76 293.567c-16.937 0-30.761-13.742-30.761-30.679 0-16.998 13.824-30.74 30.761-30.74 16.998 0 30.74 13.742 30.74 30.74 0.020 16.937-13.722 30.679-30.74 30.679zM430.080 211.668c-11.325 0-20.48-9.155-20.48-20.48 0-11.305 9.155-20.48 20.48-20.48 11.305 0 20.46 9.175 20.46 20.48 0 11.325-9.175 20.48-20.46 20.48zM440.32 293.567c-5.673 0-10.26-4.588-10.26-10.22 0-5.673 4.588-10.26 10.26-10.26 5.612 0 10.199 4.588 10.199 10.26 0.020 5.632-4.567 10.22-10.199 10.22zM481.28 150.248c5.673 0 10.281 4.588 10.281 10.199 0 5.673-4.608 10.26-10.281 10.26-5.612 0-10.281-4.588-10.281-10.26 0.020-5.612 4.669-10.199 10.281-10.199zM596.029 354.823l59.331-225.055h-46.633c3.482 6.062 5.693 13.025 5.693 20.48 0 22.61-18.35 40.94-40.96 40.94s-40.94-18.33-40.94-40.94c0-7.455 2.191-14.418 5.693-20.48h-169.574l59.331 225.055c0 0 42.885-63.181 84.644 0 41.861 63.119 83.415 0 83.415 0zM471.020 436.948c-11.305 0-20.48 9.175-20.48 20.48 0 11.325 9.175 20.48 20.48 20.48 11.387 0 20.562-9.155 20.562-20.48-0.020-11.305-9.196-20.48-20.562-20.48zM471.020 600.808c-11.305 0-20.48 9.155-20.48 20.48s9.175 20.48 20.48 20.48c11.387 0 20.562-9.155 20.562-20.48s-9.196-20.48-20.562-20.48zM471.020 385.727c0-5.612-4.588-10.199-10.199-10.199-5.673 0-10.281 4.588-10.281 10.199 0 5.693 4.608 10.26 10.281 10.26 5.612 0 10.199-4.567 10.199-10.26zM501.76 539.307c5.673 0 10.26-4.588 10.26-10.199 0-5.693-4.588-10.26-10.26-10.26-5.612 0-10.199 4.567-10.199 10.26 0 5.632 4.588 10.199 10.199 10.199zM624.701 744.127h-225.321c-16.998 0-30.74 13.742-30.74 30.761 0 16.916 13.742 30.659 30.74 30.659h225.3c16.937 0 30.679-13.742 30.679-30.659 0-17.019-13.742-30.761-30.659-30.761z" />
<glyph unicode="&#xe60e;" d="M389.161 703.188h40.96v-184.34l-117.74-430.039h399.36l-117.821 430.039v184.34h41.021v-163.881l142.131-491.54h-530.125l142.213 491.54v163.881zM624.64 744.127h-225.28c-16.916 0-30.679 13.742-30.679 30.74 0 16.916 13.742 30.679 30.679 30.679h225.28c16.998 0 30.761-13.742 30.761-30.679 0-16.998-13.763-30.74-30.761-30.74z" />
<glyph unicode="&#xe60f;" d="M701.686 158.83c18.35-9.83 28.918-26.89 23.593-38.134-5.345-11.325-24.556-12.575-42.885-2.744-18.35 9.769-28.897 26.849-23.572 38.134 5.325 11.244 24.535 12.493 42.865 2.744zM677.888 236.94c22.036 15.442 46.715 16.916 55.153 3.4 8.397-13.599-2.683-37.11-24.699-52.552s-46.694-16.998-55.132-3.379c-8.458 13.517 2.642 37.089 24.678 52.531zM729.129 326.233c1.024-13.23-1.638-9.81-15.77-19.579-14.111-9.81-9.769-2.888-18.473 3.994-8.643 6.943-6.492 17.879-1.106 31.785 5.468 13.824 10.342-1.188 20.623-1.188 10.363 0 13.599-1.7 14.725-15.012zM672.42 491.507c-40.878 12.206-46.51 25.068-64.532 31.99-17.961 6.963 3.85 37.868 16.937 29.204 13.087-8.724 38.359-16.404 59.576-25.068 21.197-8.704 28.815-48.251-11.981-36.127zM588.247 229.404c-5.489 8.724 1.679 23.88 15.79 33.772 14.193 9.912 30.085 10.936 35.471 2.212 5.489-8.806-1.679-23.88-15.872-33.853-14.111-9.892-30.024-10.854-35.389-2.13zM591.032 187.071c14.193 9.892 30.085 10.854 35.471 2.13s-1.7-23.88-15.892-33.772c-14.172-9.912-30.003-10.936-35.451-2.212-5.407 8.704 1.679 23.859 15.872 33.853zM513.966 155.123c17.715-12.124 29.409-30.966 26.071-42.066-3.318-10.998-20.398-10.199-38.134 2.007-17.736 12.124-29.43 30.966-26.092 42.066 3.318 10.998 20.398 10.199 38.154-2.007zM513.434 233.274c25.477 7.291 49.357 0.43 53.289-15.237 3.994-15.749-13.517-34.365-39.035-41.615-25.477-7.25-49.357-0.43-53.289 15.299-3.994 15.667 13.435 34.284 39.035 41.554zM387.994 344.952c22.692 0 41.083 18.473 41.083 41.308 0 22.856-18.391 41.329-41.083 41.329s-41.103-18.473-41.103-41.329c0-22.835 18.412-41.308 41.103-41.308zM369.521 526.548c45.67 26.235 135.639 39.322 178.442-6.492 42.783-45.834 62.792-116.204 37.089-178.36-25.641-62.157-69.919-96.543-122.757-99.779-52.777-3.256-94.167 16.323-122.696 47.432-28.529 31.048-48.558 117.821-31.416 165.192 17.142 47.473 15.647 45.834 61.338 72.008zM389.693 638.062c19.21 6.083 39.014-24.74 0.655-33.915-38.359-9.093-20.091-3.338-53.658-15.524-33.628-12.186-30.679-19.804-22.692-27.341 7.987-7.619 23.654-43.602-13.169-63.427-36.721-19.743-70.369-50.196-67.113-25.866 3.174 24.392 44.728 31.928 47.964 48.701 3.174 16.691-12.8 41.021-12.8 41.021s-20.849-27.341-46.428-34.959c-25.58-7.619-46.346 4.588-1.556 36.516 44.728 31.928 57.795 39.035 115.384 60.314 57.631 21.299 34.263 8.438 53.412 14.479zM453.919 685.985c-45.67 4.055-63.263 19.067-148.255-45.629-32.010-24.33-51.159 0.082-30.372 21.361 20.767 21.279 62.382 44.483 100.741 56.689 38.359 12.124 48.701 2.376 84.992 3.461 36.209 1.065 38.502-39.875-7.107-35.881zM714.691 552.701c-31.068 17.388-72.499 27.197-92.18 30.679-19.579 3.482-35.246-18.555-71.25-18.555-35.922 0-31.048 22.753-52.265 22.753-21.299 0-27.791 24.33 8.131 24.33s29.409-17.531 49.070-15.811c19.579 1.761 19.579 17.367 19.579 17.367s-17.961 12.206-42.476 20.849c-24.474 8.724-3.912 25.416 25.477 27.218 29.368 1.7 66.314-47.903 116.941-47.903 50.647 0 65.065-22.692 89.58-45.302 24.494-22.569-19.558-32.973-50.606-15.626zM793.416 516.861c12.698 21.791-2.007 166.605-29.348 179.61-27.443 13.087-111.555 79.462-202.527 78.438-90.993-1.106-196.628 6.513-257.311-16.343-60.6-22.835-118.333-46.776-130.089-132.813-11.735-86.036-37.171-251.474 62.628-363.602 99.779-112.128 169.267-167.649 260.178-173.097 90.972-5.468 242.668-25.068 292.557 14.172 49.91 39.178 80.2 144.732 40.059 199.209-40.059 54.415-56.689 66.376-73.318 88.187-16.65 21.729 24.453 104.509 37.171 126.239zM879.677 306.429c45.24-60.989 7.987-198.82-48.271-242.729-56.238-43.848-227.287-21.873-329.871-15.831-102.584 6.144-180.92 68.321-293.499 193.823-112.517 125.563-83.845 310.866-70.615 407.183s78.356 123.146 146.719 148.705c68.444 25.641 187.597 17.080 290.161 18.35 102.605 1.188 197.53-73.175 228.393-87.818 30.904-14.643 47.452-176.722 33.116-201.114s-57.631-97.485-38.871-121.876c18.801-24.33 37.499-37.765 82.739-98.693z" />
<glyph unicode="&#xe610;" d="M642.314 643.857c-14.479-14.5-43.438-14.5-72.397-43.397-28.979-28.959-43.459-72.417-28.979-173.752 43.459-188.334-14.479-275.19-43.377-304.169-28.979-28.979-86.938-57.938-130.396-14.479s0 86.917 14.5 101.396c14.5 14.5 43.459 14.5 72.438 43.397 28.979 28.959 43.479 72.438 28.979 173.834-43.459 188.252 14.5 275.108 43.397 304.087 28.979 28.979 86.897 57.938 130.376 14.5 43.336-43.459-0.020-86.938-14.541-101.417zM294.81 296.312c-14.5-14.479-57.958-57.856-101.417-14.479-43.459 43.479-14.5 101.417 14.5 130.396 24.248 24.166 89.149 68.362 219.668 56.975 2.888-13.967 5.919-28.099 9.236-42.496 1.188-8.131 1.987-15.606 3.031-23.45-52.183-0.369-80.712-13.66-101.622-34.529-28.897-28.938-28.897-57.917-43.397-72.417zM816.128 441.105c-24.248-24.166-89.17-68.362-219.689-56.975-2.888 13.988-5.919 28.16-9.236 42.578-1.208 8.069-2.007 15.524-3.031 23.368 52.204 0.369 80.712 13.66 101.642 34.529 28.918 28.979 28.918 57.938 43.397 72.417 14.479 14.5 57.917 57.958 101.396 14.5 43.438-43.479 14.479-101.437-14.479-130.417z" />
<glyph unicode="&#xe611;" d="M389.14 785.087h245.78v-122.86h-245.78v122.86zM696.34 211.668h-163.881v40.96h163.881v-40.96zM696.177 334.507v-40.96h-81.736v40.96h81.736zM471.040 334.507h81.592v-40.96h-81.592v40.96zM348.201 252.628h122.696v-40.96h-122.696v40.96zM348.201 334.507h61.42v-40.96h-61.42v40.96zM348.201 416.468h348.14v-40.96h-348.14v40.96zM696.34 457.428h-204.82v40.96h204.82v-40.96zM696.177 580.267v-40.94h-81.736v40.94h81.736zM348.201 498.367h81.736v-40.96h-81.736v40.96zM348.201 580.267h204.431v-40.94h-204.431v40.94zM737.28 68.267h-450.58c-22.61 0-40.94 18.391-40.94 41.042v593.879c0 22.61 18.33 40.94 40.94 40.94h81.981v-40.94h-81.981v-593.9h450.58v593.9h-81.9v40.94h81.9c22.61 0 40.96-18.33 40.96-40.94v-593.9c0-22.63-18.35-41.021-40.96-41.021z" />
<glyph unicode="&#xe612;" d="M678.134 523.21c-24.617-51.958-26.092-124.948-37.929-176.906 10.424-73.83-12.493-151.45-69.263-208.282-96.010-95.928-251.597-95.928-347.525 0-96.010 96.010-96.010 251.597 0 347.566 56.75 56.832 134.39 79.688 208.22 69.263 51.958 11.817 124.969 13.373 176.927 37.99l69.571-69.632zM860.57 717.299l-130.314-130.314 14.5-14.479c7.987-7.987 7.987-20.992 0-28.979s-20.992-7.987-28.979 0l-14.479 14.5-72.438 72.438c-7.987 8.008-7.987 20.931 0 28.897 8.069 8.069 20.972 8.069 28.979 0l14.479-14.479 130.376 130.396c15.954 15.974 41.923 15.974 57.876 0 16.036-16.056 16.036-41.923 0-57.979z" />
<glyph unicode="&#xe613;" d="M143.36 303.828v245.699h737.321v-245.699h-737.321zM389.12 58.068v737.219h245.801v-737.219h-245.801z" />
<glyph unicode="&#xe614;" d="M194.908 481.574c0-38.523 67.113-133.693 102.441-201.994 35.328 68.301 102.38 163.471 102.38 201.994 0 3.4 0 7.25 0 11.305-64.963 30.228-139.837 30.228-204.82 0 0-4.055 0-7.905 0-11.305zM306.749 645.516c1.024-1.843 2.068-3.768 3.092-5.612-38.42-0.881-76.943 1.782-114.934 8.806 0-29.716 0-75.981 0-114.852 51.978 24.166 110.203 28.754 164.762 14.193 0.225-0.369 0.43-0.881 0.655-1.249 7.475-12.943 25.436-20.705 39.997-16.712 12.411-23.429 24.023-43.684 35.185-62.444-22.467-74.424-111.022-215.245-117.002-273.244 0-19.005 0-35.348 0-47.247 11.1-0.43 19.804-9.236 19.804-20.337v-61.399h10.199c5.693 0 10.26-4.608 10.26-10.199 0-5.693-4.588-10.281-10.26-10.281h-102.38c-5.693 0-10.281 4.588-10.281 10.281 0 5.591 4.588 10.199 10.281 10.199h10.199v61.399c0 11.1 8.724 19.907 19.804 20.337 0 11.899 0 28.242 0 47.247-6.861 66.437-122.163 241.541-122.163 301.117 0 45.302 0 123.945 0 162.161-0.143 0-0.225 0.082-0.369 0.082-11.162 2.888-20.111 14.93-20.111 26.317 0 27.566 0 34.57 0 62.157 0 11.448 8.95 17.961 20.111 14.991 94.249-24.617 193.208-24.617 287.457 0 11.162 2.97 20.070-3.543 20.070-14.991 0-5.98 0-10.875 0-15.38-44.995-22.999-92.303-41.677-141.373-55.132-14.561-4.035-20.48-17.265-13.005-30.208zM711.352 540.249c-1.679 2.97-3.564 6.226-5.591 9.769-71.393-6.369-136.151-43.766-177.418-102.359 2.089-3.564 3.994-6.881 5.693-9.748 19.231-33.341 124.928-82.207 189.686-123.74-3.645 76.8 6.922 192.758-12.37 226.079zM627.835 684.981c-52.47-44.544-112.497-79.217-177.398-102.359 14.868-25.723 37.99-65.782 57.426-99.492 41.247 58.634 106.004 96.031 177.418 102.38-19.436 33.69-42.557 73.748-57.446 99.471zM885.35 136.486l-88.637-51.22c-4.915-2.806-11.162-1.126-14.049 3.768-2.806 4.874-1.085 11.162 3.809 13.988l8.847 5.181-30.72 53.207c-5.489 9.544-2.314 21.668 6.922 27.443-5.96 10.486-14.316 24.822-23.921 41.513-40.079 54.19-226.263 147.599-255.98 199.066-22.733 39.24-62.054 107.377-81.101 140.431-0.143 0-0.225-0.082-0.369-0.082-11.1-3.113-24.822 2.806-30.597 12.718-13.742 23.88-17.285 30.003-31.048 53.801-5.693 9.892-1.188 20.050 9.892 23.060 93.942 25.866 179.63 75.325 248.955 143.77 8.192 8.069 19.231 6.963 24.924-2.949 13.844-23.88 17.285-30.024 31.13-53.883 5.673-9.83 3.912-24.699-4.28-32.829-0.082-0.082-0.164-0.143-0.328-0.225 19.169-33.116 58.47-101.192 81.080-140.431 29.716-51.528 17.51-259.441 44.442-321.229 9.605-16.691 17.961-31.048 23.962-41.533 9.687 5.181 21.729 1.843 27.279-7.68l30.72-53.248 8.888 5.12c4.874 2.806 11.162 1.188 13.967-3.768 2.826-4.915 1.188-11.162-3.789-13.988z" />
<glyph unicode="&#xe615;" d="M484.823 252.607h-122.839v238.735c-82.637-22.569-143.38-97.874-143.38-187.515 0-107.479 87.142-194.621 194.601-194.621 89.641 0 164.966 60.764 187.515 143.401h-115.896zM877.015 158.42l-14.336-8.274 0.082-0.061-106.373-61.501-64.881 112.415c-41.841-113.316-150.508-194.171-278.282-194.171-164.004 0-296.98 132.977-296.98 297.001 0 146.412 106.23 267.776 245.76 292.188v4.731c0 19.722 9.4 37.028 23.88 48.271-37.929 14.991-64.819 51.876-64.819 95.13 0 56.545 45.814 102.38 102.359 102.38 56.566 0 102.441-45.834 102.441-102.38 0-43.233-26.972-80.118-64.881-95.13 14.479-11.244 23.859-28.549 23.859-48.271h167.485c31.949 0 57.795-22.917 57.795-51.22 0-28.242-25.866-51.159-57.795-51.159h-167.485v-122.921h245.76v-1.188l2.068 1.188 68.608-118.866 14.336 8.274c29.348 16.916 66.97 6.881 83.907-22.548 16.978-29.327 6.922-66.949-22.508-83.886z" />
<glyph unicode="&#xe616;" d="M613.478 421.158c-2.806-16.855-8.847-32.379-17.797-46.203l-135.414 135.414c13.824 8.95 29.43 14.991 46.203 17.818l107.008-107.028zM517.468 325.148l-107.028 107.028c2.826 16.855 8.868 32.379 17.818 46.182l135.414-135.414c-13.824-8.909-29.348-14.991-46.203-17.797zM660.050 694.709c4.751 15.319 12.37 29.204 22.794 41.267l138.445-138.445c-12.083-10.424-25.969-17.94-41.247-22.692l-119.992 119.869zM363.889 158.625c-4.669-15.299-12.349-29.204-22.774-41.267l-138.445 138.465c12.063 10.424 26.030 18.022 41.329 22.671l119.89-119.869zM537.354 602.406c-54.17-3.113-103.854-22.467-141.251-59.863-47.596-47.677-66.437-115.159-58.9-186.614-0.901 0.061-1.7 0.061-2.519 0.143l19.149-84.992c0.594-0.225 1.27-0.43 1.864-0.655 7.025-17.674 11.448-35.471 13.292-52.859l-65.946 65.925c1.618-0.143 3.256-0.205 4.956-0.43l-16.63 73.769c-54.026-3.174-103.547-22.548-140.8-59.884-20.541-20.46-35.697-44.728-45.752-71.25l58.102-58.184c0.655 18.616 4.731 36.147 12.124 51.876l129.638-129.556c-15.749-7.455-33.321-11.469-51.958-12.124l58.102-58.020c26.624 10.035 50.934 25.047 71.393 45.527 47.677 47.677 66.458 115.241 59.003 186.716 0.287-0.082 0.573-0.082 0.881-0.082l-19.292 85.524c-0.082 0-0.082 0-0.082 0-3.625 9.073-6.492 18.248-8.786 27.279l59.126-59.146 12.349-54.538c54.641 2.888 104.817 22.241 142.459 59.863 47.677 47.677 66.437 115.159 58.962 186.634 0.246 0 0.41 0 0.594 0l-19.436 86.405c-6.881 17.367-11.162 34.877-12.923 51.896l65.925-65.864c-2.273 0.225-4.567 0.287-6.881 0.655l16.712-74.056c54.682 2.888 104.96 22.241 142.643 59.945 20.48 20.48 35.717 44.728 45.752 71.25l-58.163 58.163c-0.676-18.555-4.69-36.147-12.124-51.876l-129.638 129.638c15.79 7.393 33.403 11.387 51.958 12.042l-58.040 58.020c-26.604-10.035-50.913-25.047-71.475-45.527-47.677-47.677-66.437-115.159-58.921-186.634-0.717 0.082-1.393 0-2.13 0.082l19.128-85.074c0.512-0.225 0.963-0.369 1.475-0.512 3.645-9.073 6.513-18.166 8.724-27.279l-60.723 60.682-11.94 52.982z" />
<glyph unicode="&#xe617;" d="M633.344 673.328c0 67.83-54.333 122.839-121.303 122.839s-121.283-55.009-121.283-122.839c0-9.769 1.311-19.149 3.461-28.242-13.824-2.13-27.648-4.506-41.39-7.393 2.949 19.64 7.762 39.69 15.79 56.259 0 34.079 0 68.157 0 102.216 88.412 52.326 198.328 52.326 286.72 0 0-41.984 0-84.050 0-126.013 4.731-10.588 8.356-21.135 11.244-31.498-12.206 2.437-24.453 4.588-36.741 6.513 2.15 9.093 3.502 18.412 3.502 28.16zM491.5 673.328c0-11.325 9.155-20.48 20.46-20.48 11.325 0 20.48 9.155 20.48 20.48 0 11.305-9.155 20.48-20.48 20.48-11.305 0-20.46-9.175-20.46-20.48zM593.94 673.328c0-45.24-36.741-81.981-81.981-81.981-45.22 0-81.879 36.741-81.879 81.981s36.659 81.9 81.879 81.9c45.24 0 81.981-36.659 81.981-81.9zM674.877 519.585l-8.131-43.172c-2.58-13.885-9.605-24.371-18.268-29.553-13.23-40.059-22.61-72.786-56.689-93.266-4.792-36.516 11.244-56.32 36.27-65.72 0.819-0.287 2.007-0.676 2.97-1.044-17.961-135.209-220.119-135.209-238.080 0 0.963 0.369 2.15 0.758 2.97 1.044 25.068 9.4 41.103 29.286 36.291 65.802-33.423 20.070-43.090 51.958-56.484 91.054-10.772 3.707-19.968 15.299-22.979 31.703l-8.11 43.172c-2.376 12.8-0.512 25.641 4.116 35.84-0.287 4.874-0.799 20.541 0 40.428 20.48 4.444 41.103 7.68 61.809 10.424 21.668-33.628 58.9-55.869 101.478-55.869s79.974 22.385 101.56 55.951c20.398-2.744 40.714-5.98 60.989-10.342 0.819-8.131 1.188-15.299 1.188-20.767 0-8.438-1.311-16.855-3.236-24.699 3.133-9.318 4.342-20.111 2.335-30.986zM430.080 120.389h-163.881v-40.96h163.881v40.96zM556.626 17.948c0 0-37.396 0-89.211 0-104.53 0-267.796 0-303.555 0 0 67.031 17.879 189.952 35.697 203.244 13.087 9.83 93.286 33.915 149.217 51.323 30.024-176.763 296.489-176.763 326.472 0 55.951-17.408 136.151-41.472 149.238-51.323 17.818-13.271 35.697-136.192 35.697-203.244-35.84 0-199.127 0-303.555 0z" />
<glyph unicode="&#xe618;" d="M368.62 774.807h102.441v-40.94h-102.441v40.94zM368.62 692.907h102.441v-40.96h-102.441v40.96zM368.62 611.007h102.441v-40.94h-102.441v40.94zM471.060 365.268h-102.441v-40.96h102.441v40.96zM471.060 447.147h-102.441v-40.96h102.441v40.96zM471.060 529.047h-102.441v-40.94h102.441v40.94zM512 201.387c-101.786 0-184.34 91.955-184.34 205.414v142.193h368.66v-142.193c0-113.459-82.534-205.414-184.32-205.414zM737.28 396.234v419.594h-450.56v-430.121h0.512c5.243-125.358 103.772-225.28 224.768-225.28s219.525 99.922 224.768 225.28h0.512v10.527zM593.388 132.267c0.082-0.881 0.512-1.679 0.512-2.601 0-16.916-13.742-30.679-30.679-30.679h-10.26v-102.441h-81.9v102.441h-10.281c-16.916 0-30.659 13.763-30.659 30.679 0 0.922 0.43 1.72 0.492 2.601-107.233 34.447-184.852 134.84-184.852 253.44v430.121c0 22.61 18.35 40.94 40.96 40.94h450.56c22.63 0 40.96-18.33 40.96-40.94v-430.121c0-118.6-77.599-218.993-184.852-253.44z" />
<glyph unicode="&#xe619;" d="M511.713 37.547c96.379 0 178.36 60.6 210.555 145.756-40.878-57.242-107.602-94.556-183.276-94.556-124.416 0-225.3 100.844-225.3 225.28 0 28.037 5.386 54.723 14.705 79.401-26.317-36.884-41.984-81.879-41.984-130.601 0-124.396 100.905-225.28 225.3-225.28zM512-3.413c-147.517 0-267.203 98.324-267.203 270.152 0 246.723 228.7 332.554 267.203 590.008 37.929-257.454 267.203-343.265 267.203-589.988 0-171.848-119.603-270.172-267.203-270.172z" />
<glyph unicode="&#xe61a;" d="M258.191 65.297c0-22.61-18.33-40.919-40.94-40.919s-41.021 18.33-41.021 40.919c0 22.63 41.021 122.839 41.021 122.839s40.94-100.188 40.94-122.839zM312.893 352.017h115.814l146.35 146.35 28.959-28.979-277.586-277.606c-23.941-23.962-57.876-29-72.356-14.479-9.318 9.318-13.824 14.848-15.237 18.391-9.605 4.526-18.268 11.796-24.105 23.47-3.625 1.884-9.318 6.758-18.637 16.077-14.479 14.479-9.523 48.394 14.5 72.397l277.627 277.627 28.979-29-204.308-204.247zM823.808 689.139l-161.792-161.812 14.479-14.479c8.008-8.008 8.008-20.992 0-28.979-7.987-7.987-20.992-7.987-28.959 0l-43.479 43.459-28.877 28.959-29 29v-0.061l-28.959 28.979v0.061l-14.479 14.5c-7.987 7.987-7.987 20.91 0 28.897 7.967 8.049 20.972 8.049 28.959 0l14.479-14.5 161.731 161.812c31.99 31.99 83.907 31.99 115.896 0s31.99-83.825 0-115.835z" />
<glyph unicode="&#xe61b;" d="M839.721 578.137c-34.816 34.877-91.197 34.877-126.013 0-34.816-34.898-34.816-91.361 0-126.259 34.816-34.796 91.197-34.796 126.013 0 34.816 34.898 34.816 91.361 0 126.259zM663.286 754.859c-34.796 34.898-91.279 34.898-126.034 0-34.796-34.877-34.796-91.341 0-126.239 34.755-34.816 91.238-34.816 126.034 0 34.816 34.898 34.816 91.361 0 126.239zM360.755 578.137c-34.816-34.898-34.816-91.361 0-126.259 34.816-34.796 91.279-34.796 126.013 0 34.816 34.898 34.816 91.361 0 126.259s-91.197 34.898-126.013 0zM184.32 401.415c-34.796-34.816-34.796-91.341 0-126.239 34.816-34.816 91.218-34.816 126.013 0 34.816 34.898 34.816 91.423 0 126.239-34.796 34.877-91.197 34.877-126.013 0zM360.755 98.434c34.816-34.796 91.279-34.796 126.013 0 34.816 34.898 34.816 91.443 0 126.259-34.734 34.877-91.197 34.877-126.013 0-34.816-34.816-34.816-91.361 0-126.259zM663.286 275.176c34.816 34.898 34.816 91.423 0 126.239-34.796 34.898-91.279 34.898-126.034 0-34.796-34.816-34.796-91.341 0-126.239 34.755-34.836 91.238-34.836 126.034 0zM915.333 451.878l-428.564-429.138c-34.734-34.877-91.197-34.877-126.013 0l-252.047 252.436c-34.816 34.898-34.816 91.423 0 126.239l428.524 429.22c34.755 34.816 91.238 34.816 126.034 0l252.068-252.477c34.816-34.918 34.816-91.382 0-126.28z" />
<glyph unicode="&#xe61c;" d="M645.161 652.070h-266.24c-5.673 0-10.26 4.588-10.26 10.281 0 5.591 4.588 10.199 10.26 10.199h10.199v81.879c0 11.305 9.175 20.541 20.48 20.541h204.82c11.305 0 20.48-9.257 20.48-20.541v-81.9h10.26c5.612 0 10.199-4.588 10.199-10.199 0-5.693-4.588-10.26-10.199-10.26zM491.581 406.31h40.94v-61.44h61.42v-40.94h-61.42v-61.42h-40.94v61.42h-61.501v40.94h61.501v61.44zM655.36 467.729h-286.7v-286.72h286.7v286.72zM634.9 78.343h-245.78c-33.915 0-61.42 27.484-61.42 61.399v358.953c0 28.303 62.382 132.608 88.781 132.608h191.14c26.378 0 88.699-104.305 88.699-132.608v-358.953c0-33.915-27.505-61.399-61.42-61.399z" />
<glyph unicode="&#xe61d;" d="M239.616 743.083c31.273 18.022 70.369 9.585 92.099-17.961l-122.634-70.738c-13.005 32.584-0.799 70.574 30.536 88.699zM311.46 618.667c-31.334-18.104-70.369-9.687-92.099 17.9l122.552 70.82c13.087-32.604 0.819-70.676-30.454-88.719zM562.77 558.64c-45.957 45.978-49.582 117.76-11.735 168.387l180.142-180.122c-50.647-37.847-122.409-34.304-168.407 11.735zM577.126 753.118c50.627 37.847 122.409 34.222 168.366-11.756 46.060-45.978 49.603-117.74 11.756-168.387l-180.122 180.142zM771.277 327.667c-14.479 53.965-68.076 86.569-119.665 72.745l-156.549-41.984 52.408-195.604 156.549 42.004c51.61 13.804 81.736 68.792 67.256 122.839zM720.712 165.793l-324.751-86.999c-72.602-19.436-148.132 27.034-168.673 103.916-20.623 76.882 21.504 154.931 94.085 174.387l324.792 87.081c72.561 19.415 148.111-27.136 168.653-103.997 20.623-76.923-21.504-154.952-94.106-174.387z" />
<glyph unicode="&#xe61e;" d="M642.765 472.501c-17.961-79.155-161.71-174.223-179.671-221.676 17.961 63.365 71.844 126.628 107.848 174.162 35.922 47.514 17.961 142.5-53.965 205.844-71.823 63.345-125.788 15.811-107.827 0s89.887-47.514 89.887-94.986c-35.922 31.642-125.809 63.263-125.809 31.642 0-31.642 53.883-15.811 89.887-47.534 35.922-31.621 53.862-47.452 53.862-94.966-17.94 31.703-53.862 79.135-107.827 79.135-31.56 0 4.28-50.033 25.498-62.956 21.299-13.025 27.791-19.968 38.81-29.286 30.065-25.498 25.354-61.338-1.188-63.939-15.749-1.536-39.629-8.868-62.833-16.548-20.541-11.018-41.021-25.743-59.29-41.759-37.704-33.26-90.849 11.592-47.165 44.257 0 0 10.056 1.044 73.687 19.825 63.713 18.698 48.046 59.863 8.581 98.816-39.547 38.953-91.218 130.683-47.964 194.109 53.883 79.155 161.71 63.345 197.632 31.703 36.004-31.683 125.809-126.669 107.848-205.844zM774.595 488.025c-20.070-157.368-139.080-193.802-219.607-281.17-80.384-87.45-80.384-106.353-140.78-158.843-60.314-52.408-160.010 22.692-164.68 118.272 42.66-45.752 97.341-106.824 160.399-52.634 62.915 54.047 43.971 87.306 100.598 137.175 56.586 49.91 188.744 166.236 188.744 266.035 0 99.717 0 163.492-94.351 213.32-94.392 49.91-160.399 40.202-229.581 9.769-47.759-21.053-91.218-56.832-128.983-73.482 56.627 116.429 202.67 171.643 308.634 152.269 159.293-29.143 239.739-173.425 219.607-330.711z" />
<glyph unicode="&#xe61f;" d="M460.595 609.471h-81.9v81.981h-61.42v-81.981h-81.981v-61.42h81.981v-81.9h61.42v81.9h81.9v61.42zM347.955 384.273c-107.397 0-194.56 87.060-194.56 194.519 0 107.479 87.163 194.56 194.56 194.56 107.459 0 194.601-87.081 194.601-194.56 0-107.459-87.142-194.519-194.601-194.519zM798.986 309.173c-78.5-189.235-414.577-317.932-435.057-218.071-11.244 39.772-21.217 78.356 12.78 90.092 35.779 10.138 114.422 54.333 140.083 77.988 26.829 21.873 40.059 7.619 54.108-7.762 13.824-15.073 13.824-15.073 27.566-30.228 12.063-13.087 2.007-25.19-1.024-28.242 52.408 44.851 96.604 98.079 130.601 157.143 34.652 59.945 58.9 125.727 71.311 194.703-1.106-4.444-6.636-18.555-23.716-14.868-20.050 4.28-20.050 4.28-40.059 8.561-20.337 4.383-39.322 8.581-33.997 42.803 7.311 34.161 5.98 121.446-2.888 157.512-6.881 35.328 31.621 45.978 71.619 56.095 96.666 32.256 153.293-323.133 28.672-485.724z" />
<glyph unicode="&#xe620;" d="M243.917 153.71l-102.38 177.316 638.464 368.62 102.441-177.336-638.525-368.599zM780.001 153.71l-638.464 368.599 102.38 177.336 638.525-368.62-102.441-177.316zM409.559 58.068v737.219h204.8v-737.219h-204.8z" />
<glyph unicode="&#xe621;" d="M430.572 135.503c0-37.11 40.714-67.277 81.469-67.277 40.714 0 82.698 30.167 82.698 67.277l-0.819 588.145h40.96v-593.9c0-56.566-55.009-102.461-122.839-102.461-67.871 0-122.921 45.896-122.921 102.461v593.9h41.021l0.43-588.145zM471.081 150.207v20.48c40.96-20.48 40.96-20.48 81.879 0v-20.48c0-22.61-18.33-40.94-40.919-40.94-22.651 0-40.96 18.309-40.96 40.94zM624.681 764.587h-225.3c-16.998 0-30.74 13.742-30.74 30.761 0 16.916 13.742 30.659 30.74 30.659h225.3c16.916 0 30.679-13.742 30.679-30.659 0-17.019-13.763-30.761-30.679-30.761z" />
<glyph unicode="&#xe622;" d="M765.42 122.314c-155.73-93.204-351.089-93.204-506.819 0-4.874-7.926-9.769-15.811-14.643-23.716 164.762-98.673 371.343-98.673 536.105 0-4.874 7.905-9.769 15.79-14.643 23.716zM222.003 122.744c8.663 10.363 17.9 19.743 27.279 28.979-22.835 7.455-40.94 24.023-49.439 45.076-8.724-8.868-17.449-17.736-25.661-27.505 15.974-15.503 31.949-31.027 47.821-46.551zM317.44 228.974c0 22.61-40.96 122.839-40.96 122.839s-40.94-100.229-40.94-122.839c0-22.61 18.33-40.96 40.94-40.96s40.96 18.35 40.96 40.96zM331.182 474.734l142.868 142.787-28.979 28.979-175.247-175.268c-23.962-23.941-28.897-57.856-14.5-72.356 9.318-9.298 14.991-14.172 18.637-16.036 5.837-11.674 14.479-18.985 24.084-23.429 1.413-3.604 5.919-9.155 15.237-18.473 14.479-14.479 48.394-9.544 72.438 14.479l175.247 175.268-28.979 28.959-84.91-84.91h-115.896zM699.781 669.478l19.436 19.476c32.010 31.99 32.010 83.886 0 115.814-31.99 31.99-83.886 31.99-115.876 0l-42.353-42.353c0 0-0.082 0-0.082-0.082l-57.876-57.876-14.479 14.479c-7.987 7.987-20.972 7.987-28.979 0-7.987-7.987-7.987-20.992 0-28.979l144.794-144.794c8.069-7.987 20.992-7.987 28.979 0s7.987 20.91 0 28.979l-14.479 14.479 80.916 80.855zM526.090 164.421c-31.13 0-56.32 24.924-56.32 55.603 0 16.261 7.168 30.659 18.33 40.858-24.678-1.618-49.377-5.673-73.482-12.411-5.079-10.691-8.192-22.61-8.192-35.246 0-46.121 37.847-83.517 84.562-83.517 37.253 0 68.444 23.859 79.77 56.832-10.301-13.373-26.337-22.118-44.667-22.118zM802.017 122.744c-42.721 50.995-94.106 87.88-149.381 110.797 0-0.881 0.143-1.618 0.143-2.58 0-75.1-63.037-136.008-140.739-136.008-77.742 0-140.8 60.908-140.8 136.008 0 0.963 0.143 1.7 0.143 2.58-4.506-1.843-8.786-4.362-13.23-6.431-0.963 13.906-8.192 38.666-18.186 67.42 171.254 75.325 376.75 33.853 509.87-125.215-15.954-15.524-31.867-31.048-47.821-46.572z" />
<glyph unicode="&#xe623;" d="M880.681 344.788c-226.529-137.4-510.73-137.4-737.28 0-7.107-11.674-14.111-23.368-21.217-35.041 239.575-145.326 540.099-145.326 779.735 0-7.127 11.674-14.111 23.368-21.238 35.041zM358.42 478.645c0-67.932 55.132-123.003 123.064-123.003 54.026 0 99.43 35.103 115.958 83.599-14.93-19.579-38.359-32.44-64.881-32.44-45.302 0-81.961 36.721-81.961 81.961 0 23.572 10.056 44.564 26.030 59.494-35.922-2.437-71.7-8.561-106.742-18.473-7.188-15.585-11.469-32.87-11.469-51.139zM933.847 345.382c-62.075 75.080-136.888 128.819-217.231 162.591 0-1.106 0.164-2.089 0.164-3.174 0-110.653-91.648-200.376-204.759-200.376-113.009 0-204.657 89.723-204.657 200.376 0 1.106 0.143 2.068 0.143 3.174-80.343-33.772-155.136-87.511-217.231-162.591-23.204 22.897-46.408 45.732-69.612 68.649 262.922 318.075 719.933 318.075 982.774 0-23.163-22.897-46.408-45.752-69.591-68.649z" />
<glyph unicode="&#xe624;" d="M240.66 306.941c-23.060 0-52.265 58.184-52.265 116.429 0 58.184 29.204 116.429 52.265 116.429 22.999 0 50.708-67.912 50.708-116.429 0-48.558-27.709-116.429-50.708-116.429zM487.26 109.473c-151.818 0-167.793 141.967-167.793 317.153s15.974 317.153 167.793 317.153c151.757 0 274.801-141.988 274.801-317.153 0-175.206-123.064-317.153-274.801-317.153zM489.165 785.333c-42.496 0-89.149-11.305-134.963-31.252 21.361 7.987 37.396 13.681 37.396 13.681s46.797 4.936 1.925-12.861c-44.933-17.736-97.341-46.428-114.196-93.88-16.855-47.514-22.467-59.351-16.855-89.006-16.855 11.837-39.322 5.919-50.565-11.899 16.855 35.635 39.322 83.087 22.467 94.925-16.855 11.899-22.467-83.026-28.099-94.925-5.55-11.817-22.405-53.35-33.628-77.087-11.244-23.716-28.099 0 0 53.35s33.628 71.188 22.467 77.107c-5.612 2.97-22.323-8.806-38.441-22.835-32.215-49.234-52.408-104.899-52.408-164.024 0-64.758 24.084-125.276 61.788-177.725 12.8-10.199 24.535-17.51 29.041-15.114 11.162 5.96 5.612 23.716-22.467 77.169-28.099 53.35-11.244 77.107 0 53.35 11.223-23.716 28.099-65.27 33.628-77.087 5.612-11.919 11.223-106.803 28.099-94.925 16.855 11.837-5.612 59.29-22.467 94.925 11.223-17.838 33.71-23.716 50.565-11.919-5.612-29.635 0-41.513 16.855-89.006 16.855-47.432 69.243-76.124 114.196-93.921 21.299-8.438 21.873-11.756 16.712-12.882 27.054-7.311 53.801-11.592 78.93-11.592 77.619 0 147.968 37.192 200.458 97.444 1.618 9.81 5.181 20.951 5.181 20.951l52.695 70.881c22.18 50.524 34.816 108.155 34.816 169.431 0.020 198.103-131.174 358.728-293.13 358.728zM906.342 82.705c-33.71 53.35-49.213 70.513-82.412 91.791-18.76 12.042-33.997 19.517-46.633 23.716-60.314-103.322-160.236-171.11-273.551-171.11-184.279 0-438.088 178.872-438.088 399.524 0 220.692 253.829 399.585 438.088 399.585 184.34 0 333.701-178.872 333.701-399.585 0-55.071-9.298-107.54-26.153-155.32 19.886-16.609 56.033-30.085 91.279-61.235 26.235-23.245 26.235-26.563 54.252-85.832 7.844-27.935-15.442-57.897-50.483-41.533z" />
<glyph unicode="&#xe625;" d="M608.645 436.293c-16.998 0-30.761-13.763-30.761-30.761 0-16.916 13.763-30.679 30.761-30.679 16.916 0 30.679 13.763 30.679 30.679 0 16.998-13.763 30.761-30.679 30.761zM577.249 578.997c0-11.284 9.236-20.48 20.521-20.48 11.325 0 20.48 9.175 20.48 20.48s-9.155 20.48-20.48 20.48c-11.284 0-20.521-9.175-20.521-20.48zM608.645 722.972c-16.998 0-30.761-13.742-30.761-30.74 0-16.937 13.763-30.679 30.761-30.679 16.916 0 30.679 13.742 30.679 30.679 0 16.998-13.763 30.74-30.679 30.74zM536.289 498.367c-11.305 0-20.48-9.155-20.48-20.48 0-11.305 9.175-20.48 20.48-20.48 11.325 0 20.48 9.175 20.48 20.48 0 11.325-9.175 20.48-20.48 20.48zM485.724 620.613c-16.937 0-30.679-13.824-30.679-30.761 0-16.998 13.742-30.72 30.679-30.72 16.998 0 30.74 13.742 30.74 30.72 0 16.937-13.742 30.761-30.74 30.761zM474.87 742.796c-11.305 0-20.48-9.175-20.48-20.48s9.175-20.48 20.48-20.48c11.305 0 20.48 9.175 20.48 20.48s-9.196 20.48-20.48 20.48zM433.91 334.507c0-11.325 9.155-20.48 20.48-20.48s20.48 9.155 20.48 20.48c0 11.305-9.175 20.46-20.48 20.46s-20.48-9.155-20.48-20.46zM403.825 436.293c-16.998 0-30.74-13.763-30.74-30.761 0-16.916 13.742-30.679 30.74-30.679 16.937 0 30.74 13.763 30.74 30.679 0 16.998-13.824 30.761-30.74 30.761zM331.53 230.796c-11.387 0-20.541-9.155-20.541-20.46 0-11.325 9.155-20.48 20.541-20.48 11.305 0 20.48 9.155 20.48 20.48 0 11.284-9.175 20.46-20.48 20.46zM310.989 681.377c-11.305 0-20.48-9.175-20.48-20.48 0-11.325 9.175-20.48 20.48-20.48s20.541 9.155 20.541 20.48c0 11.305-9.236 20.48-20.541 20.48zM270.049 353.717c0-11.305 9.155-20.46 20.48-20.46s20.48 9.155 20.48 20.46c0 11.325-9.175 20.48-20.48 20.48s-20.48-9.175-20.48-20.48zM249.569 457.407c-11.305 0-20.48-9.155-20.48-20.46 0-11.387 9.175-20.562 20.48-20.562s20.48 9.175 20.48 20.562c0 11.305-9.175 20.46-20.48 20.46zM515.809 148.917c11.305 0 20.48 9.155 20.48 20.46 0 11.325-9.175 20.48-20.48 20.48s-20.48-9.155-20.48-20.48c0-11.305 9.155-20.46 20.48-20.46zM905.708 527.715c-12.78-92.754-164.106-278.364-135.188-346.051 28.877-67.707 71.844-162.611 71.844-162.611s-87.736-45.896-158.31-68.137c-72.294-22.753-127.529-21.873-127.529-21.873s-17.285 56.832-63.631 122.47c-46.346 65.556-132.813 24.023-209.551 35.41-76.636 11.469-34.877 74.138-37.54 110.203-2.662 36.147-44.278 24.986-39.178 57.795 5.1 32.891 74.732 24.105 74.732 24.105s-27.341 10.281-49.889 13.169c-22.61 2.806-37.335-2.294-50.033 30.597 23.941 25.129 21.422 57.139 17.367 84.398-37.396 5.489-91.361 21.074-81.080 41.247 10.281 20.111 66.97 72.95 86.569 97.587 19.661 24.617 20.849 31.416 8.643 61.112-12.186 29.635 0.819 51.528 9.605 84.562 40.858 154.726 205.681 251.392 348.18 229.601 350.577-53.821 341.484-346.87 334.991-393.585z" />
<glyph unicode="&#xe626;" d="M624.23 429.309c-8.274-29.164-20.91-56.771-37.028-82.125 11.53-6.328 23.142-12.677 34.652-19.046 18.473 28.877 32.829 60.436 42.353 93.798-13.292 2.437-26.563 4.936-39.977 7.373zM575.488 625.999c-7.25-11.53-14.5-23.142-21.811-34.673 24.535-15.36 46.94-34.652 66.294-57.487 10.445 8.806 20.849 17.654 31.273 26.46-22.2 26.092-47.759 48.108-75.756 65.7zM493.343 251.276c7.168-10.875 14.254-21.791 21.361-32.686 28.529 19.169 54.333 42.209 76.575 68.321-10.281 8.049-20.541 16.077-30.822 24.248-19.497-22.856-42.127-43.049-67.113-59.884zM437.33 674.332c-1.475-13.517-3.031-27.116-4.588-40.632 28.529-3.256 56.463-10.711 82.78-22.18 5.468 12.493 10.936 24.986 16.343 37.54-30.024 13.087-61.952 21.586-94.536 25.272zM446.71 422.591c28.017 17.572 53.596 39.547 75.756 65.7-10.424 8.806-20.849 17.592-31.273 26.46-19.354-22.835-41.82-42.127-66.294-57.508 7.25-11.592 14.561-23.122 21.811-34.652zM386.765 437.071c-26.317-11.469-54.252-18.924-82.78-22.18 1.556-13.599 3.092-27.116 4.588-40.714 32.604 3.686 64.451 12.288 94.536 25.354-5.468 12.493-10.875 25.068-16.343 37.54zM388.096 676.195c-33.034-1.188-66.212-7.455-98.447-19.005 4.588-12.861 9.236-25.723 13.824-38.584 28.242 10.117 57.283 15.606 86.18 16.691-0.532 13.619-1.044 27.3-1.556 40.899zM371.18 160.632c34.591 5.919 67.85 16.876 98.816 32.072-5.243 12.001-10.486 23.962-15.749 35.922-27.136-13.271-56.259-22.794-86.487-28.078 1.126-13.271 2.232-26.604 3.42-39.916zM905.728 527.695c-12.78-92.754-164.168-278.344-135.25-346.071 28.979-67.686 71.926-162.591 71.926-162.591s-87.736-45.916-158.331-68.157c-72.274-22.753-127.508-21.873-127.508-21.873s-17.306 56.832-63.631 122.47c-46.346 65.556-132.833 24.044-209.551 35.41-76.739 11.489-34.898 74.158-37.54 110.203-2.662 36.168-44.278 25.006-39.178 57.795 5.038 32.911 74.732 24.125 74.732 24.125s-27.341 10.281-49.951 13.169c-22.548 2.806-37.335-2.314-49.971 30.597 23.941 25.129 21.443 57.119 17.367 84.398-37.396 5.489-91.423 21.074-81.080 41.247 10.26 20.111 66.97 72.95 86.548 97.587s20.767 31.416 8.643 61.112c-12.206 29.635 0.819 51.528 9.523 84.562 40.96 154.788 205.783 251.453 348.283 229.663 350.556-53.883 341.402-346.931 334.971-393.646z" />
<glyph unicode="&#xe627;" d="M511.959 764.587c-101.765 0-184.259-82.493-184.259-184.279 0-101.847 82.493-184.32 184.259-184.32 101.868 0 184.361 82.473 184.361 184.32 0 101.765-82.493 184.279-184.361 184.279zM573.46 279.191v-67.564h122.86v-122.839h-122.86v-122.921h-122.921v122.921h-122.839v122.839h122.839v67.564c-140.145 28.488-245.76 152.474-245.76 301.117 0 169.636 137.564 307.2 307.18 307.2 169.718 0 307.282-137.564 307.282-307.2 0-148.644-105.554-272.65-245.78-301.117z" />
<glyph unicode="&#xe628;" d="M435.937 343.907c-27.791 0-48.415 9.4-61.809 24.207-22.835 21.791-37.622 68.956-75.899 68.956-43.54 0-58.020-46.94-115.978-46.94-43.971 0-86.999 70.881-173.998 70.881 72.52 15.606 110.879 0.594 144.957-23.941 58.020-46.94 86.999 30.74 144.056 30.74 29.266 0 49.295-5.325 67.564-16.486 11.735 22.323 35.615 37.622 71.107 37.622 52.040 0 108.728-32.44 108.728-72.499 0-40.018-56.689-72.54-108.728-72.54zM851.866 406.228c-33.935 0-61.42 27.484-61.42 61.42 0 33.915 27.484 61.42 61.42 61.42 33.915 0 61.42-27.505 61.42-61.42 0-33.935-27.505-61.42-61.42-61.42zM810.906 590.507c-90.46 0-163.86-73.318-163.86-163.799 0-90.542 73.4-163.86 163.86-163.86 90.481 0 163.881 73.318 163.881 163.86 0 90.46-73.4 163.799-163.881 163.799zM810.906 221.867c-113.070 0-204.8 91.689-204.8 204.82 0 113.091 91.73 204.739 204.8 204.739 113.091 0 204.82-91.648 204.82-204.739 0-113.132-91.73-204.82-204.82-204.82z" />
<glyph unicode="&#xe629;" d="M144.814 641.605c-12.206-2.888-20.398 8.069-31.703 18.862-12.493 11.878-9.544 21.053-4.731 30.228 5.018 9.318 26.317 10.117 30.29 0 3.789-9.462 9.544-14.111 13.292-26.849 3.482-11.756 4.526-19.436-7.148-22.241zM184.054 692.456c-13.005-6.738-20.91 2.97-33.485 12.39-15.442 11.674-10.854 24.781-3.543 38.38 7.537 13.906 33.997 17.572 37.11 5.018 2.826-11.244 8.192-15.749 10.199-29.635 1.7-12.104 1.556-19.948-10.281-26.153zM227.82 749.514c-12.206-8.499-20.91-1.393-35.103 5.1-19.21 8.643-14.418 22.323-6.492 36.352 7.762 13.763 35.021 17.736 38.728 6.881 3.174-9.544 8.356-13.005 10.793-24.453 2.13-9.974 2.478-16.63-7.926-23.88zM291.963 786.255c-2.58-18.862-5.98-31.273-22.548-28.549-16.466 2.826-18.534 22.856-23.777 42.516s3.256 29.123 13.373 37.56c10.199 8.479 32.952 2.13 32.154-11.018-0.737-13.169 3.4-21.586 0.799-40.509zM399.012 777.387c-14.868-27.73-16.507-32.44-16.507-32.44s-13.967 11.080-32.215 14.868c-18.186 3.686-32.379 6.636-32.379 6.636s-9.155 23.368-8.499 63.795c0.676 40.346 44.81 50.033 73.708 33.403 28.815-16.712 30.74-58.634 15.892-86.262zM401.203 543.813c-22.671-11.837-56.975-20.337-91.279-42.435s-27.341-74.793-1.188-100.127c26.153-25.272 77.107-62.628 104.653-109.097 27.505-46.51 13.906-105.472-47.37-136.97-61.194-31.498-93.286 13.087-104.796 40.12-11.612 27.054-18.35 68.383-43.459 140.657-25.149 72.212-99.86 182.19-99.635 221.757 0.143 39.629 91.361 122.9 117.166 157.798 25.866 34.959 122.102 13.373 156.017 7.373 33.935-5.98 39.322-63.488 43.971-94.515 4.751-31.048-11.366-72.745-34.079-84.562zM910.848 498.060c-11.284-10.793-19.476-21.668-31.601-18.842-11.674 2.806-10.67 10.486-7.209 22.241 3.727 12.718 9.482 17.388 13.23 26.89 4.076 10.056 25.354 9.318 30.31-0.061 4.895-9.175 7.782-18.33-4.731-30.228zM873.39 542.481c-12.513-9.462-20.398-19.149-33.526-12.349-11.796 6.144-11.878 14.049-10.199 26.092 1.966 13.885 7.311 18.391 10.158 29.635 3.154 12.636 29.635 8.868 37.089-5.038 7.332-13.578 11.919-26.665-3.523-38.339zM831.324 592.207c-14.234-6.41-22.999-13.599-35.164-5.018-10.363 7.25-10.076 13.824-7.926 23.798 2.437 11.469 7.598 14.93 10.834 24.453 3.727 10.875 31.007 6.881 38.687-6.861 7.926-13.967 12.8-27.648-6.431-36.372zM778.322 637.836c-5.243-19.661-7.25-39.69-23.798-42.435-16.568-2.806-19.968 9.626-22.528 28.549-2.601 18.842 1.597 27.341 0.799 40.509-0.799 13.087 21.955 19.436 32.154 11.018 10.22-8.52 18.698-17.981 13.373-37.642zM706.13 604.065c0 0-14.193-2.888-32.44-6.656-18.289-3.707-32.236-14.787-32.236-14.787s-1.638 4.71-16.486 32.358c-14.807 27.73-12.923 69.55 15.954 86.282 28.918 16.691 72.95 7.025 73.646-33.423 0.635-40.366-8.438-63.775-8.438-63.775zM806.195 173.596c-25.088-72.274-31.887-113.603-43.397-140.657-11.592-27.054-43.602-71.619-104.878-40.141-61.194 31.498-74.875 90.481-47.329 136.97 27.525 46.51 78.52 83.825 104.673 109.179 26.153 25.272 33.116 77.988-1.208 100.086-34.284 22.18-68.649 30.679-91.361 42.496-22.671 11.817-38.81 53.432-34.038 84.48 4.71 31.048 10.035 88.556 43.95 94.536s130.232 27.566 156.037-7.311c25.887-34.959 117.002-118.252 117.248-157.798 0.143-39.567-74.568-149.565-99.697-221.839z" />
<glyph unicode="&#xe62a;" d="M430.572 135.523c0-37.11 40.735-67.277 81.469-67.277s82.637 30.167 82.637 67.277l-0.737 588.124h40.94v-593.879c0-56.566-54.989-102.461-122.839-102.461-67.912 0-122.921 45.896-122.921 102.461v593.879h40.94l0.512-588.124zM471.020 150.228v491.52c41.021-20.48 41.021-20.48 81.961 0v-491.52c0-22.61-18.33-40.94-40.94-40.94s-41.021 18.309-41.021 40.94zM624.681 764.587h-225.28c-16.998 0-30.761 13.742-30.761 30.761 0 16.916 13.763 30.679 30.761 30.679h225.28c16.937 0 30.679-13.763 30.679-30.679 0-17.019-13.742-30.761-30.679-30.761z" />
<glyph unicode="&#xe62b;" d="M716.8 242.367c11.305 0 20.541-9.155 20.541-20.48 0-11.305-9.236-20.48-20.541-20.48-11.325 0-20.48 9.175-20.48 20.48 0 11.325 9.155 20.48 20.48 20.48zM727.060 385.687c16.998 0 30.74-13.742 30.74-30.679 0-16.998-13.742-30.74-30.74-30.74s-30.74 13.742-30.74 30.74c0 16.937 13.742 30.679 30.74 30.679zM593.94 314.068c0 16.916 13.742 30.679 30.74 30.679 16.937 0 30.679-13.763 30.679-30.679 0-16.998-13.742-30.761-30.679-30.761-16.998 0-30.74 13.763-30.74 30.761zM389.12 252.567c0 16.998 13.742 30.74 30.74 30.74 16.937 0 30.679-13.742 30.679-30.74 0-5.325-1.782-10.056-4.137-14.418 7.823 2.519 16.036 4.219 24.699 4.219 26.685 0 50.196-12.943 65.106-32.686 0 0.655-0.205 1.27-0.205 1.925 0 28.324 22.917 51.22 51.2 51.22 28.324 0 51.241-22.897 51.241-51.22 0-28.221-22.917-51.22-51.241-51.22-13.885 0-26.44 5.55-35.676 14.561 0.881-4.71 1.475-9.523 1.475-14.561 0-24.248-10.65-45.814-27.443-60.764-4.198-0.143-8.335-0.655-12.575-0.655-39.547 0-77.169 7.311-112.271 20.050-7.168 12.186-11.592 26.235-11.592 41.37 0 24.924 11.223 46.879 28.754 61.87-16.118 1.106-28.754 14.049-28.754 30.31zM430.060 344.747c0 22.61 18.33 40.94 41.021 40.94 22.61 0 40.94-18.35 40.94-40.94 0-22.63-18.33-40.96-40.94-40.96-22.692 0-41.021 18.33-41.021 40.96zM378.9 406.167c16.937 0 30.679-13.763 30.679-30.679 0.020-16.998-13.742-30.74-30.679-30.74-16.998 0-30.74 13.742-30.74 30.74 0 16.916 13.742 30.679 30.74 30.679zM256 365.207c16.998 0 30.74-13.742 30.74-30.659 0-4.301-0.963-8.356-2.519-12.063 4.076 1.044 8.294 1.782 12.718 1.782 28.303 0 51.22-22.917 51.22-51.241 0-28.221-22.917-51.139-51.22-51.139-28.221 0-51.139 22.917-51.139 51.139 0 11.612 3.994 22.262 10.486 30.843-0.061 0-0.225-0.082-0.287-0.082-16.916 0-30.679 13.763-30.679 30.761 0 16.916 13.742 30.659 30.679 30.659zM225.321 529.067c-9.093 0-16.568 5.919-19.292 14.111 3.256 8.52 6.861 16.712 10.793 24.842 2.58 1.188 5.468 2.007 8.499 2.007 11.305 0 20.48-9.175 20.48-20.48s-9.175-20.48-20.48-20.48zM286.74 447.188c0-22.61-18.33-41.021-40.94-41.021s-41.021 18.391-41.021 41.021c0 22.61 18.412 40.94 41.021 40.94s40.94-18.35 40.94-40.94zM307.22 570.027c-22.61 0-40.96 18.33-40.96 40.96 0 22.61 18.33 40.96 40.96 40.96s40.96-18.35 40.96-40.96c-0.020-22.63-18.35-40.96-40.96-40.96zM491.561 713.407c-11.305 0-20.48 9.175-20.48 20.48 0 8.786 5.612 16.179 13.373 19.067 3.707 0.307 7.537 0.307 11.387 0.532 9.236-2.089 16.179-9.769 16.179-19.599 0-11.305-9.155-20.48-20.46-20.48zM501.76 610.987c-3.686 0-7.086 0.942-10.404 2.15 0.061-0.758 0.225-1.413 0.225-2.15 0-22.61-18.391-40.96-41.021-40.96-0.451 0-0.819 0.143-1.27 0.143 13.373-13.005 21.811-31.171 21.811-51.364 0-39.547-32.154-71.619-71.7-71.619-39.629 0-71.7 32.072-71.7 71.619-0.020 39.629 32.072 71.7 71.68 71.7 5.98 0 11.592-0.901 17.142-2.294-4.342 6.492-6.922 14.336-6.922 22.774 0 22.61 18.33 40.96 40.96 40.96 7.823 0 15.073-2.376 21.361-6.205 2.068 14.93 14.336 26.685 29.86 26.685 17.019 0 30.761-13.742 30.761-30.679-0.020-17.019-13.783-30.761-30.781-30.761zM553.001 549.547c-11.325 0-20.48 9.175-20.48 20.48s9.155 20.48 20.48 20.48c11.305 0 20.48-9.175 20.48-20.48s-9.175-20.48-20.48-20.48zM614.42 651.927c-22.61 0-40.94 18.33-40.94 40.94 0 22.692 18.33 41.021 40.94 41.021s40.94-18.33 40.94-41.021c0-22.61-18.33-40.94-40.94-40.94zM798.761 426.708c-22.61 0-40.96 18.33-40.96 40.94 0 3.113 0.389 6.144 1.044 9.093-15.073-17.9-37.315-29.553-62.525-29.553-15.462 0-29.88 4.506-42.209 11.981 0.819-3.932 1.249-7.864 1.249-11.981 0-33.935-27.484-61.501-61.42-61.501-33.915 0-61.42 27.566-61.42 61.501 0 33.915 27.505 61.42 61.42 61.42 8.95 0 17.388-1.987 25.068-5.468-2.744 8.192-4.588 16.773-4.588 25.948 0 40.428 29.43 73.769 67.912 80.425-4.055 6.349-6.492 13.865-6.492 21.934 0 22.61 18.33 40.96 40.96 40.96 6.41 0 12.39-1.638 17.797-4.219 6.492-5.919 12.8-12.206 18.76-18.555 2.765-5.468 4.444-11.592 4.444-18.186 0-13.906-6.881-26.092-17.449-33.485 22.692-14.561 37.929-39.916 37.929-68.895 0-10.793-2.212-20.992-5.98-30.372 7.188 6.062 16.343 9.892 26.46 9.892 16.835 0 31.252-10.199 37.56-24.74 1.085-6.574 2.273-13.087 3.011-19.804-1.925-20.931-19.21-37.335-40.571-37.335zM512.020 795.307c-202.875 0-367.35-165.048-367.35-368.599 0-203.633 164.475-368.681 367.35-368.681 202.916 0 367.37 165.048 367.37 368.681 0 203.551-164.454 368.599-367.37 368.599zM512.020-3.393c-237.548 0-430.1 192.532-430.1 430.1 0 237.486 192.553 430.039 430.1 430.039 237.507 0 430.060-192.553 430.060-430.039 0-237.568-192.553-430.1-430.060-430.1z" />
<glyph unicode="&#xe62c;" d="M908.39 349.519c-0.082 0.901-0.328 1.556-0.43 2.355-6.963 8.069-14.193 19.661-16.916 34.898-34.959 35.328-114.524 34.14-172.319 33.178-131.994-2.212-138.711-55.009-126.403-96.236 12.8-43.028 40.366-119.439 163.963-142.643 136.069-25.477 159.949 90.337 152.105 168.448zM308.429 419.97c-73.4 1.27-182.272 3.113-189.686-70.431-7.823-78.111 16.036-193.946 152.125-168.448 123.576 23.204 151.163 99.615 163.942 142.643 12.268 41.226 5.612 94.003-126.382 96.236zM965.591 338.152c-0.799 0-1.311 0-2.089 0-5.161-100.004-50.115-223.969-200.602-204.82-160.952 20.48-201.196 122.86-221.286 184.259-2.232 6.656-3.994 13.537-5.325 20.562h-45.568c-1.331-7.025-3.092-13.906-5.243-20.562-20.111-61.399-60.314-163.779-221.307-184.259-150.508-19.149-195.441 104.817-200.622 204.82-0.799 0-1.311 0-2.13 0-18.924 0-18.924 20.48-18.924 40.96 0 20.46 0 20.46 0 40.94s129.577 197.796 205.476 279.695c75.837 81.981 58.982-33.915 58.982-74.854 0-41.021-55.808-122.921-55.808-41.021l19.005 81.961c0 0-68.669-72.438-170.742-225.28 4.444-2.355 8.11-4.157 11.592-5.55 49.951 25.948 129.638 26.030 193.352 26.030 110.94 0 160.625-26.89 179.241-61.42h59.822c18.637 34.529 68.239 61.42 179.241 61.42 63.713 0 143.401-0.061 193.352-26.030 3.482 1.393 7.168 3.195 11.592 5.55-102.154 152.842-170.721 225.28-170.721 225.28l18.924-81.961c0-81.9-55.767 0-55.767 41.021 0 40.94-16.916 156.836 59.003 74.854 75.919-81.9 205.476-259.215 205.476-279.695s0-20.48 0-40.94c0.082-20.48 0.082-40.96-18.924-40.96z" />
<glyph unicode="&#xe62d;" d="M686.326 235.302l-169.022 97.628c-20.767 11.981-47.309 4.874-59.29-15.892l-10.854-18.76c-11.981-20.787-4.874-47.329 15.872-59.29l169.042-97.587c20.767-12.042 47.329-4.874 59.29 15.811l10.875 18.78c11.96 20.808 4.874 47.329-15.913 59.31zM654.561 353.861l-18.801 10.772c-20.767 11.981-47.288 4.874-59.29-15.79l-10.834-18.78 93.921-54.252 10.875 18.78c11.96 20.746 4.895 47.288-15.872 59.269zM494.838 120.532l18.76-10.875c20.767-11.96 47.247-4.874 59.29 15.892l10.793 18.76-93.942 54.19-10.793-18.76c-12.001-20.705-4.895-47.247 15.892-59.208zM877.158 466.951c-31.99-42.639-74.65-95.949-85.279-138.588-10.65-42.578-21.279-138.527-31.928-170.516-10.711-31.949-31.99-53.228-21.361-74.588 10.65-21.299 42.639-53.309 10.65-74.588-13.087-8.724-55.603-39.629-104.53-57.446-48.927-17.736-104.284-22.467-122.778-22.467-15.462 0-49.746-5.345-60.457 15.954-10.65 21.299-10.65 42.639-42.578 63.939-31.99 21.279-95.949 85.217-127.857 117.228-32.010 31.949-53.309 63.939-63.939 95.949-10.711 31.949-53.309 106.516-85.299 127.877-31.949 21.279-74.588 53.289-42.66 74.588 32.010 21.279 103.035 4.424 124.334-16.855 21.361-21.361 56.832-100.352 99.471-100.352s53.309 85.217 53.309 138.506c0 53.309-31.949 191.877-42.66 266.465-10.65 74.588-10.65 106.598 21.361 117.248 31.949 10.65 63.939-85.299 74.588-138.609 10.65-53.228 31.949-181.166 53.309-181.166 21.279 0 31.928 138.588 31.928 213.156s10.711 202.465 53.309 202.465c42.639 0 42.639-42.578 42.639-95.867 0-53.309-21.279-319.754 0-330.404s53.289 170.516 63.918 213.156c10.65 42.66 42.68 117.248 74.609 106.598 31.99-10.711 10.711-138.609 0-191.898-10.65-53.228-53.289-170.435-31.928-191.795 21.279-21.279 74.568 63.939 106.557 106.578 31.928 42.639 85.238 95.949 106.516 74.588 21.361-21.279-21.279-106.578-53.248-149.156z" />
<glyph unicode="&#xe62e;" d="M265.748 383.618l70.881 106.967 71.782-92.242 0.737-2.314 54.395 82.002 47.247-184.402 0.287 0.123-0.143-0.963 37.478-9.441 39.629 217.661 28.733-115.22 38.81 11.366-0.492 2.007 43.745 71.332 64.020-82.125v-3.154h1.475l-252.314-246.108-252.334 246.088h4.588l1.475-1.577zM803.246 425.704h-22.897l-82.78 101.99-0.737 2.212-54.047-81.469-37.253 149.094-0.963-0.389-35.328 8.643-42.148-225.956-42.557 167.137-33.935-18.555 0.389-1.413-43.459-70.799-67.645 91.054-32.666-18.842-59.802-102.748h-26.685c-55.132 70.513-49.971 171.479 16.097 235.868 72.008 70.226 188.703 70.226 260.69 0l14.479-14.111 14.5 14.111c71.987 70.226 188.703 70.226 260.628 0 66.089-64.348 71.25-165.315 16.118-235.827z" />
<glyph unicode="&#xe62f;" d="M389.161 785.087h245.76v-122.86h-245.76v122.86zM737.3 346.877l-54.19 73.011-41.615-71.332 0.43-1.925-36.884-11.366-27.423 115.364-37.704-217.846-35.697 9.482 0.164 0.963-0.307-0.164-43.848 179.63-51.139-77.189-1.044 3.113-0.881-1.638-68.813 93.061-51.651-81.92v-248.832h450.58v237.588zM778.24 352.222v-242.913c0-22.63-18.33-41.042-40.94-41.042h-450.58c-22.61 0-40.96 18.391-40.96 41.042v251.679l-0.143 0.123 0.143 0.266v341.811c0 22.61 18.35 40.94 40.96 40.94h81.961v-40.94h-81.961v-267.94l23.654 42.639 31.048 18.842 65.331-92.385 41.452 67.645-1.393 5.898 32.297 18.555 40.571-167.035 40.059 225.853 33.628-8.643 0.963 0.389 35.41-149.115 51.528 81.469 0.655-2.212 55.357-71.619v297.656h-81.9v40.94h81.9c22.61 0 40.94-18.33 40.94-40.94v-350.659l0.164-0.246-0.143-0.061z" />
<glyph unicode="&#xe630;" d="M787.169 407.436l-275.19-268.329-275.128 268.329c-71.987 70.144-71.987 183.972 0 254.116 71.987 70.205 188.703 70.205 260.628 0l14.5-14.111 14.5 14.111c72.028 70.205 188.703 70.205 260.69 0 71.987-70.164 71.987-183.972 0-254.116z" />
<glyph unicode="&#xe631;" d="M596.521 658.193c-19.231 0.061-59.167-1.475-59.167-1.475s5.55 10.568 7.209 21.729c1.925 12.636 4.567 28.017 4.567 28.017s-6.472 5.98 15.831 18.186c22.405 12.124 42.721 10.711 44.032-7.168 1.331-17.92-1.987-42.906-12.472-59.29zM534.036 721.456c-1.741-30.085-14.684-58.9-14.684-58.9l-57.344-51.528c0 0-4.137 8.95-23.224 13.967-19.067 4.956-30.228 9.236-30.228 9.236l30.904 107.172c0 0 13.742 40.796 51.343 35.41 39.404-5.775 44.872-29.491 43.233-55.357zM778.752 443.522c-20.398-5.673-19.722-13.517-36.803-17.142-8.11 53.228-24.965 104.366-24.965 104.366s19.046 10.711 38.81 9.236c19.722-1.393 19.722-37.11 11.796-38.584l-30.208-9.236c0 0 20.951 2.13 36.127 4.28 11.858-10.035 25.641-47.145 5.243-52.92zM592.364 451.96c0 0 1.311 28.59-3.912 65.044s5.919 80.036 30.925 77.169c24.965-2.888 76.206-38.584 85.443-88.617 9.155-49.951 29.553-124.314 29.553-124.314l-142.008 70.717zM410.481 721.149c-6.881-28.897-15.749-87.798-15.749-87.798-31.58 25.723-75.837 14.991-94.618-9.626 6.943 26.767 14.787 110.285 19.722 144.589 4.956 34.222 51.364 33.116 74.957 14.868 23.675-18.186 22.548-33.137 15.688-62.034zM740.27 407.395c67.031-102.83 27.648-173.486-2.97-276.296-30.515-102.81-43.315-80.343-223.58-37.458-180.347 42.783-184.709 131.195-185.672 144.589s-5.55 62.157-5.55 62.157-9.523-20.623-8.95-51.528c-35.185 27.505-96.829 88.699-73.769 230.298 30.536 187.453 154.849 134.984 200.172 116.716-25.661-35.348-122.348-139.182-116.429-213.094 22.692 107.090 178.934 224.911 204.513 255.98 11.817-1.044 147.21 5.325 167.936 2.13 20.603-3.174 36.434-1.044 36.434-55.665s-18.76-41.841-18.76-41.841-29.512 62.157-77.844 67.482c-48.271 5.407-44.278-38.502-24.637-82.391 19.804-43.93 62.157-18.268 129.106-121.078z" />
<glyph unicode="&#xe632;" d="M143.401 631.447c-39.629 0-71.7-32.072-71.7-71.619 0-39.629 32.072-71.7 71.7-71.7 19.661 0 37.478 7.926 50.422 20.787l40.428-15.155c-20.48-28.078-53.432-46.551-90.849-46.551-62.239 0-112.64 50.422-112.64 112.64 0 62.157 50.401 112.66 112.64 112.66 40.94 0 76.411-22.118 96.154-54.784l-43.745-9.4c-13.087 14.111-31.621 23.122-52.408 23.122zM542.761 406.248h-40.94v40.94h-41.042v40.94h41.042v40.96h40.94v-40.96h40.94v-40.94h-40.94v-40.94zM522.281 570.027c-56.545 0-102.441-45.814-102.441-102.38 0-56.525 45.896-102.441 102.441-102.441s102.38 45.916 102.38 102.441c0 56.566-45.834 102.38-102.38 102.38zM823.562 119.447l-37.396 64.819c-1.27 2.15-1.843 4.526-2.294 6.799-66.294-8.95-134.369-10.117-181.514-10.117-12.206 0-24.023 1.331-35.635 3.4l-38.277-64.901h295.117zM936.059 385.768c-10.199 69.12-191.078 225.219-235.643 225.219-44.503 0-65.475-53.658-55.276-122.86 10.199-69.161 50.033-143.38 94.597-143.38 44.503 0 202.383 0 196.321 41.021zM993.26 324.267c0-72.888-77.292-108.585-167.772-126.239l45.384-78.582h20.050c11.305 0 20.48-9.155 20.48-20.48 0-11.305-9.175-20.46-20.48-20.46h-450.601c-11.325 0-20.48 9.155-20.48 20.46 0 11.325 9.155 20.48 20.48 20.48h40.571l45.076 76.513c-85.668 34.284-147.087 124.518-147.087 230.769 0 15.053 1.249 29.778 3.625 44.114l-216.699 68.362c-5.612-6.144-13.455-10.117-22.405-10.117-16.998 0-30.74 13.742-30.74 30.74 0 16.916 13.742 30.679 30.74 30.679 11.018 0 20.173-6.062 25.58-14.787l298.988 47.165c24.904 20.623 53.883 35.697 85.381 43.459l18.452 28.529c-9.605 2.888-17.654 9.155-22.753 17.449l-252.047-19.333v81.859l252.047-19.354c7.188 11.592 19.968 19.354 34.652 19.354 14.725 0 27.505-7.762 34.673-19.354l252.047 19.354v-81.879l-252.047 19.333c-5.1-8.274-13.169-14.561-22.774-17.449l15.073-23.204c126.546-8.643 382.587-214.487 382.587-347.382z" />
<glyph unicode="&#xe633;" d="M462.889 392.814c27.771-16.036 60.088-16.63 87.511-4.956l32.215-75.387c-50.258-21.443-109.609-19.968-160.604 9.462-50.995 29.471-81.981 80.118-88.556 134.369l81.388 9.83c3.604-29.655 20.255-57.283 48.046-73.318zM549.519 542.85c35.901-20.767 48.189-66.662 27.484-102.523-20.767-35.922-66.662-48.251-102.502-27.505-35.922 20.705-48.251 66.601-27.505 102.523 20.685 35.922 66.601 48.21 102.523 27.505zM561.111 562.859c-27.873 16.056-60.088 16.63-87.593 4.956l-32.154 75.407c50.258 21.443 109.629 19.968 160.604-9.544 50.995-29.43 81.961-80.036 88.535-134.39l-81.388-9.769c-3.604 29.614-20.214 57.324-48.005 73.339zM614.4 655.183c-97.935 56.566-223.212 22.999-279.777-74.936-56.525-97.997-22.979-223.212 74.977-279.757s223.212-22.979 279.757 74.936c56.545 97.935 22.979 223.212-74.957 279.757zM776.335 235.814l83.825-167.567-296.837 104.735c-16.835-1.393-33.915-2.355-51.364-2.355-237.486 0-430.039 137.544-430.039 307.18 0 169.697 192.553 307.261 430.039 307.261 237.548 0 430.1-137.564 430.1-307.261 0-98.386-64.983-185.733-165.724-241.992z" />
<glyph unicode="&#xe634;" d="M435.098 296.209c-44.503-7.987-92.099 5.263-126.546 39.629-34.447 34.447-47.596 82.043-39.69 126.628 44.585 7.905 92.18-5.243 126.628-39.69 34.365-34.468 47.596-82.063 39.608-126.566zM614.42 744.127h-61.42v61.42h-61.42v-61.42h-61.501v-61.42h61.501v-61.501h61.42v61.501h61.42v61.42zM522.24 580.267c-73.544 0-133.12 59.576-133.12 133.12s59.576 133.12 133.12 133.12 133.12-59.576 133.12-133.12-59.576-133.12-133.12-133.12zM799.355 37.588v112.558h-574.013v-112.558c-34.161-41.021-68.301-41.021-102.461 0v532.48c34.161 40.94 68.301 40.94 102.461 0v-317.46h574.013v71.7c33.915 40.94 67.83 40.94 101.786 0v-286.72c-33.935-41.021-67.85-41.021-101.786 0z" />
<glyph unicode="&#xe635;" d="M716.718 631.528h-122.921v-143.319h-163.799v143.319h-122.921v-409.559h122.921v143.319h163.799v-143.319h122.921v409.559zM204.718 119.385v614.584h614.605v-614.584h-614.605z" />
<glyph unicode="&#xe636;" d="M194.621 303.787h61.42v61.42h-61.42v-61.42zM194.621 201.407h61.42v61.42h-61.42v-61.42zM194.621 98.967h61.42v61.501h-61.42v-61.501zM296.98 303.787h61.42v61.42h-61.42v-61.42zM296.98 201.407h61.42v61.42h-61.42v-61.42zM296.98 98.967h61.42v61.501h-61.42v-61.501zM153.58 426.708h245.78v-368.681h-245.78v368.681zM829.46 160.468h-61.42v-61.501h61.42v61.501zM829.46 262.827h-61.42v-61.42h61.42v61.42zM829.46 365.207h-61.42v-61.42h61.42v61.42zM829.46 651.927h-61.42v-61.42h61.42v61.42zM829.46 754.367h-61.42v-61.42h61.42v61.42zM747.561 262.827h-61.501v-61.42h61.501v61.42zM747.561 365.207h-61.501v-61.42h61.501v61.42zM747.561 508.587h-61.501v61.44h-61.42v-61.44h-61.42v-61.42h61.42v-61.522h61.42v61.522h61.501v61.42zM747.561 651.927h-61.501v-61.42h61.501v61.42zM747.561 754.367h-61.501v-61.42h61.501v61.42zM624.64 651.927h-61.42v-61.42h61.42v61.42zM624.64 754.367h-61.42v-61.42h61.42v61.42zM542.74 160.468h-61.42v-61.501h61.42v61.501zM542.74 262.827h-61.42v-61.42h61.42v61.42zM542.74 365.207h-61.42v-61.42h61.42v61.42zM542.74 651.927h-61.42v-61.42h61.42v61.42zM542.74 754.367h-61.42v-61.42h61.42v61.42zM563.22 303.787h61.42v61.42h-61.42v-61.42zM563.22 201.407h61.42v61.42h-61.42v-61.42zM747.561 58.027v102.441h-81.961v-102.441h-20.48v102.441h-81.9v-102.441h-122.839v737.28h430.019v-737.28h-122.839z" />
<glyph unicode="&#xe637;" d="M231.854 357.506c23.511 23.45 39.178 23.45 70.513 23.45 31.252 0 54.764-7.762 70.431-46.92 15.667-39.199 7.823-117.473 0-140.964-7.844-23.511-15.667-31.355-15.667-31.355s0 0 23.491 7.844 31.334 0 39.178-15.688c0 31.355-7.844 54.845 23.429 78.356 31.355 23.511 101.847 23.511 117.453-7.844 31.334 7.844 70.492 0 94.024 23.511-23.511 0-39.178 0-39.178 0s-15.667 23.45-7.823 46.92c7.823 23.511 39.158 39.199 62.607 39.199 23.491 0 47.002 0 47.002 0s31.334-47.043 39.178-86.118c15.667 39.076-23.491 93.921-23.491 93.921s23.491 46.961 39.158 54.804c15.606 7.844 31.273 15.647 31.273 15.647l-46.94-7.803c0 0-23.491-15.688-39.178-31.273-15.688-15.688-23.491-31.355-23.491-31.355s-46.94 15.688-93.942-7.803c0-23.511-31.355-70.513-70.431-70.513-39.178 0-78.356-15.606-93.962 7.844-15.667 23.47-7.823 54.845-23.491 70.472-15.667 15.688-62.689 39.117-78.356 46.961-15.585 7.844-78.275 31.334-86.118 47.022-7.823 15.667-23.491 47.002 7.844 70.431 31.334 23.491 70.431 39.158 109.609 15.667s70.513-39.096 70.513-39.096 7.762 7.844 31.273 15.606c23.491 7.844 47.002 0 47.002 0s31.334-7.762 31.334-31.252 0-23.491 0-23.491 54.784 47.002 70.431 70.41c15.667 23.511 70.431 31.334 78.275 23.511 7.823-7.844 15.667-31.334 15.667-31.334s0 15.667 0 39.158c15.688 15.688 39.178 15.688 39.178 15.688s-7.844 15.667-47.022 15.667c-39.076 0-78.275-39.158-86.098-47.002s-47.022-46.94-47.022-46.94-7.823 0-23.429 7.844c-7.823 7.762-23.491 23.429-39.178 23.429-23.491 15.688-31.314 23.511-31.314 23.511s-46.94-31.334-78.295-7.844-31.334 31.334-31.334 31.334-62.607-23.491-101.786-7.844c-39.178 15.688-62.607 39.178-78.275 101.786-15.667 62.689 7.823 101.786 46.94 125.276 39.178 23.511 78.356 0 86.18-15.667 7.762-15.688 0-101.786 0-101.786l15.585 78.275c0 0 15.667 23.491 47.002 23.491s47.002-54.784 47.002-54.784l-15.667-31.334 31.273 31.334c0 0 23.511 31.273 62.669 31.273 39.178 0 39.178-15.688 39.178-15.688s7.762-31.252 7.762-54.784c0-23.491 15.667 15.688 7.844 54.784 15.667 23.491 15.667 23.491 47.022 31.334 31.314 7.844 54.845-7.844 54.845-7.844s15.606-70.431 70.431-70.431c-15.688 15.688-54.845 23.511-54.845 70.431 23.47 23.511 54.845 31.334 54.845 31.334l-7.844 31.334 54.845 31.273c0 0 62.607-46.94 62.607-70.431 0-23.511-15.688-54.784-54.845-47.022-39.096 7.844-39.096 7.844-54.764 23.491 7.823-23.491 0-31.252 0-31.252s47.002 7.762 62.607-7.844c15.688-15.667 23.491-39.178 7.844-54.845-15.688-15.667-78.275-31.334-109.629-23.491-31.252 7.844-54.784 47.002-62.628 70.513-7.844 23.429-7.844 31.252-7.844 31.252l-15.647-7.844c0 0 47.002-117.371-23.511-125.215-70.431-7.823-86.118 23.45-86.118 54.784s0 31.334 0 31.334l-15.667 15.688c0 0 7.844-70.513-46.94-78.356-54.845-7.844-54.845 15.688-54.845 15.688s7.844 47.002-23.491 78.336c7.823-31.334 23.491-86.18-15.667-94.024-39.096-7.844-78.275 15.688-78.275 62.689-15.667 0 0.676-61.338 32.010-77.025 31.252-15.667 54.108 14.336 85.443 6.492 31.334-7.762 62.607-23.429 62.607-23.429l-15.606-31.334 39.117 23.491c0 0 23.491 15.667 54.845 0 31.252-15.667 39.096-31.334 39.096-31.334s7.823-47.002 7.823-39.178c0 7.844 7.844 47.022 7.844 47.022s39.178 47.002 78.356 54.764c39.096 7.844 86.098 15.688 117.432 7.844 31.273-7.844 78.275-39.096 54.764-62.607-23.47-23.491-46.92-39.178-46.92-39.178l-23.491 15.688 31.252-46.94c0 0-7.762-54.845-62.607-62.689s-62.607-7.844-62.607 15.688c0 23.491 0 39.158 0 39.158s-47.022-78.336-86.2-86.18c-39.076-7.844-93.942-23.45-117.432 0-23.45 23.491 15.688 39.178 15.688 39.178l31.314 31.334-47.002-23.491c0 0-54.784-23.511-86.118 0-31.334 23.491-62.607 31.314-62.607 31.314s31.273-31.314 70.431-47.002c39.178-15.688 86.118-39.178 101.786-54.784 15.667-15.688 7.844-47.002 7.844-47.002s-31.334 0-39.178-15.688c15.688 0 39.178 7.844 47.002 7.844 7.844 0 15.688-39.199 15.688-39.199s15.688 7.844 7.844 39.199c7.844 31.314 23.491 62.607 54.764 70.431 31.355 7.844 70.513-7.844 70.513-7.844s15.688 23.511 46.94 31.334c31.334 7.844 78.336 15.688 93.942 47.022 47.002 0 70.513-23.491 47.002-70.513-23.47-46.961-31.314-39.117-31.314-39.117s31.314-23.47 23.47-78.316c-7.823-54.804-31.314-93.962-78.254-86.118-47.022 7.844-47.022 47.002-62.689 86.118 0-62.648-15.667-78.275-62.628-86.118-47.002-7.844-62.669-39.199-125.276 7.844 7.844-70.431 15.688-109.65-7.823-140.964-23.491-31.273-86.118-62.607-109.629-23.45-23.491 39.117-47.002 31.273-62.607 54.764-15.667 23.511-23.511 70.431-15.667 101.806 7.823 31.314 15.667 62.689 7.823 101.765-7.823 39.199-15.667 70.513-31.334 39.199-15.667-31.355-54.845-62.689-62.689-31.355-7.823 31.355 7.844 62.689 7.844 62.689s-15.606-23.429 7.905 0.041z" />
<glyph unicode="&#xe638;" d="M456.622 1.707c0 0-18.842 332.247-19.948 359.875 11.674 6.963 33.546 13.926 33.546 13.926s5.612-297.677 15.073-387.645c-11.592-6.922-28.672 13.844-28.672 13.844zM585.011 486.223l4.874 27.648 24.023-6.881 6.799-20.767h-35.697zM466.452 472.399l-28.897-20.787-7.086 27.668h-23.798c0 0-0.225 6.943-0.819 20.767 5.693 6.943 23.286 13.824 23.286 13.824s-12.411 166.154-26.685 228.454c-14.336 62.321-21.668 96.911-21.668 96.911 10.793 27.648 40.284 34.57 52.777 20.767 19.436-41.533 36.434-173.036 37.253-193.802-4.055-48.497-4.362-193.802-4.362-193.802zM366.612 370.9c-12.124-48.21-9.912-121.876-11.305-162.324-1.331-40.448-24.76-143.483-120.996-105.472-96.236 38.072-106.291 131.113-130.601 196.116-24.248 64.881-12.923 173.466 50.401 226.447 63.345 52.92 118.927 71.619 187.372 24.269 68.444-47.329 37.171-130.908 25.129-179.036zM928.44 404.671c-14.111-64.287-10.588-154.399-97.362-199.393-86.753-44.995-123.72 51.446-130.765 90.030-7.086 38.646-15.36 109.363-33.71 154.399-18.35 45.097-60.109 122.266-1.188 173.691 58.839 51.528 114.647 38.666 182.804-6.41 68.157-45.036 94.31-147.907 80.22-212.316zM648.97 372.026c-24.617 20.767-90.767 38.052-90.767 38.052s9.687-237.404 16.118-403.579c-5.407-13.844-46.285-34.591-65.434 0 1.638 110.715-10.486 410.46-10.486 410.46l-105.554-41.452 4.874 27.648c0 0 64.164 34.57 99.348 48.476-2.949 76.145 10.342 346.051 25.805 408.371 23.286 13.824 41.697 0 54.333-20.767-9.482-62.321-19.005-276.91-20.337-394.568 12.124-6.963 90.911-41.533 90.911-41.533s6.41-13.824 1.188-31.109z" />
<glyph unicode="&#xe639;" d="M536.166 705.359c-68.178 7.619-307.057 60.621-364.421-79.442-41.759-102.072-54.252-180.060-45.24-248.218 60.17-52.408 82.78-140.657 82.78-140.657s-61.788 79.462-82.78 79.237c28.672-105.984 22.036-188.109 61.501-184.34 39.404 3.768 102.892 91.054 163.799 102.38 60.969 11.387 167.711 62.218 199.926 153.068 32.317 90.87 52.285 178.524 52.285 178.524s14.049-126.771-6.431-167.711c125.522 45.466 126.239 49.746 165.724 91.443 39.404 41.595 95.969 130.376 120.996 156.918 25.129 26.46 22.323 73.974-20.685 70.205-43.049-3.768-72.438-24.084-122.634-16.486-50.196 7.537-138.711 8.888-163.881 5.1 21.524-34.058 20.48-102.359 20.48-102.359s-18.432 83.436-61.42 102.339z" />
<glyph unicode="&#xe63a;" d="M511.959 355.048c-40.96 0-40.96 0-81.92-20.48 0 20.48 0 40.96 0 81.981 20.48 20.48 40.96 20.48 40.96 61.42s0 245.76 0 266.24 20.48 40.94 40.96 40.94c20.46 0 41.001-20.46 41.001-40.94s0-225.3 0-266.24 20.48-40.94 40.96-61.42c0-41.021 0-61.501 0-81.981-40.96 20.48-40.96 20.48-81.961 20.48zM886.764 71.421c-51.22-14.049-94.249 22.487-165.335 15.892-71.188-6.574-86.548 48.579-86.548 87.593 0 20.644 0 31.498 0 108.524 14.848-13.087 35.103-33.772 35.103-33.772s-13.169 55.951-35.103 82.412c0 21.361 0 61.481 0 99.779 17.961 15.585 35.246 64.655 35.246 64.655s-24.986-26.89-35.246-21.115c0 13.435 0 41.677 0 46.838 0 153.231 173.015 28.754 235.397-141.025 6.144-16.548 11.674-32.748 16.63-48.394 10.998-42.271-4.28-99.287-4.28-99.287s14.848 31.252 22.753 33.997c26.624-110.121 20.255-185.426-18.616-196.096zM350.003 205.299c0 0 21.811 10.691 36.516 24.33 0-23.962 2.58-46.060 2.58-54.723 0-39.014-15.36-94.167-86.548-87.572-71.107 6.574-114.115-29.942-165.356-15.892-31.56 8.663-41.677 59.802-30.147 137.564 5.919-15.708 27.791-36.291 27.791-36.291s-19.661 50.033-16.036 95.724c8.417 34.447 20.029 72.356 34.816 112.783 6.062 16.425 13.169 32.461 20.992 47.821 11.674-42.127 20.398-33.26 20.398-33.26s-4.588 13.537 5.775 78.070c76.268 115.2 188.334 171.684 188.334 48.374 0-8.991 0-13.578 0-34.058-6.41 5.181-26.235 26.89-26.235 26.89s26.235-46.039 26.235-92.16c0-30.679 0-93.43 0-136.97-14.868-63.037-39.117-80.63-39.117-80.63z" />
<glyph unicode="&#xe63b;" d="M575.16 489.827c-71.987 72.008-188.703 72.008-260.69 0-72.008-72.008-72.008-188.703 0-260.69 71.987-72.008 188.703-72.008 260.69 0 71.926 71.987 71.926 188.682 0 260.69zM763.515 519.114v72.192l-62.403-62.362c79.073-119.316 66.007-281.559-39.076-386.662-119.972-120.013-314.45-120.013-434.483 0-119.972 119.951-119.972 314.45 0 434.401 105.165 105.103 267.428 118.19 386.724 39.096l62.403 62.382h-72.233v122.921l282.010-0.225v-281.764h-122.941z" />
<glyph unicode="&#xe63c;" d="M491.52 643.018h40.96v40.96h40.919v40.94h-40.919v40.96h-40.96v-40.96h-40.96v-40.94h40.96v-40.96zM614.441 704.437c0 56.545-45.875 102.441-102.441 102.441-56.545 0-102.359-45.896-102.359-102.441s45.814-102.359 102.359-102.359c56.566 0 102.441 45.814 102.441 102.359zM551.404 6.827c0 0-33.055 0-78.787 0-92.18 0-236.237 0-267.796 0 0 61.44 15.749 102.482 31.478 122.921 15.77 20.48 141.783 81.92 173.343 102.4 14.336 9.277 25.272 27.116 30.003 47.677-1.843-1.126-3.85-2.089-5.673-3.277-46.121-30.249-85.75-44.401-167.711-3.482 34.591 10.158 58.921 31.273 81.981 61.522-34.632-10.117-62.792-10.445-143.442-20.562 69.12 40.366 99.86 63.119 122.839 163.86 5.837 25.354 15.462 47.677 27.505 67.031-9.236 83.968-18.473 167.916-27.73 251.904 49.009 32.543 116.654 49.746 184.586 49.684 67.932 0.061 135.66-17.142 184.566-49.664-8.806-80.568-17.715-161.219-26.604-241.787 16.671-40.059 15.688-97.485 8.11-145.162 16.63-33.034 39.24-68.874 79.688-95.867-28.324 0-47.084 0.287-76.042 13.844 12.841-36.68 40.202-70.676 76.042-95.724-104.673-18.35-142.725 30.72-174.715 54.886 3.686-23.47 15.36-44.564 31.396-54.886 31.478-20.48 157.512-81.92 173.24-102.4 15.749-20.439 31.519-61.481 31.519-122.921-31.56 0-175.636 0-267.796 0z" />
<glyph unicode="&#xe63d;" d="M884.49 440.348c-9.769-27.423-35.041-41.247-49.295-31.867-14.418 9.4-16.179 32.543-9.236 52.49 41.329 115.364-32.215 242.79-152.863 264.684-20.767 3.973-39.895 17.142-40.796 34.284-0.963 17.080 23.572 32.010 52.265 26.767 157.778-28.59 254.013-195.4 199.926-346.358zM764.662 467.77c-9.011-24.904-32.748-36.352-42.639-27.505-10.056 8.806-8.438 27.873-2.97 43.704 21.75 59.638-17.080 126.812-79.606 137.83-16.425 3.174-33.71 11.305-36.291 24.392-2.744 13.087 19.005 27.771 45.097 23.204 91.423-16.077 148.214-114.319 116.408-201.626zM350.966 725.675c-120.627-21.873-194.232-149.32-152.842-264.684 6.943-19.968 5.1-43.090-9.236-52.49-14.275-9.38-39.567 4.444-49.295 31.867-54.19 150.938 42.107 317.747 199.926 346.358 28.652 5.263 53.207-9.687 52.244-26.767-0.881-17.142-20.029-30.31-40.796-34.284zM384.512 621.821c-62.525-11.018-101.253-78.193-79.524-137.83 5.468-15.811 7.107-34.898-2.97-43.704-9.892-8.868-33.649 2.601-42.66 27.505-31.785 87.306 24.924 185.549 116.429 201.646 26.092 4.588 47.821-10.117 45.097-23.204-2.58-13.107-19.886-21.238-36.372-24.412zM307.22 65.543v81.9h409.62v-81.9h-409.62zM368.64 188.403l37.847 358.994c1.782 16.835 21.504 30.167 44.114 30.167h122.86c22.61 0 42.332-13.312 44.114-30.167l37.765-358.994h-286.7z" />
<glyph unicode="&#xe63e;" d="M245.76 139.988h204.82v-41.042h-204.82c-22.61 0-40.94 18.391-40.94 41.042v593.879c0 22.63 18.33 40.96 40.94 40.96h81.9v-40.96h-81.9v-593.879zM655.401 447.147h-266.24v40.96h266.24v-40.96zM389.161 610.967h266.24v-40.94h-266.24v40.94zM389.161 365.186h61.42v-40.96h-61.42v40.96zM450.58 201.387h-61.42v40.96h61.42v-40.96zM348.14 488.107h-40.96v-40.96h40.96v40.96zM368.599 426.687h-81.879v81.9h81.879v-81.9zM307.18 570.027h40.96v40.94h-40.96v-40.94zM286.72 631.447h81.879v-81.9h-81.879v81.9zM348.14 365.186h-40.96v-40.96h40.96v40.96zM368.599 303.746h-81.879v81.92h81.879v-81.92zM348.14 242.347h-40.96v-40.96h40.96v40.96zM368.599 180.907h-81.879v81.92h81.879v-81.92zM348.14 815.787h245.74v-122.88h-245.74v122.88zM696.32 733.867h-81.961v40.96h81.961c22.63 0 40.96-18.33 40.96-40.94v-348.201h-40.96v348.18zM754.565 320.273c-14.397 8.315-32.87 3.4-41.247-11.039l-79.606-137.912-34.263 59.351c-8.356 14.479-26.911 19.436-41.329 11.080-14.479-8.356-19.436-26.849-11.080-41.329l60.436-104.714c0.328-0.512 0.84-0.84 1.208-1.311 1.085-1.72 2.519-3.113 3.994-4.608s2.888-2.888 4.567-3.994c0.512-0.369 0.799-0.881 1.311-1.208 1.126-0.553 2.314-0.635 3.4-1.085 2.007-0.799 3.994-1.72 6.083-2.089 1.925-0.43 3.686-0.369 5.591-0.369s3.85-0.082 5.755 0.369c2.089 0.43 3.871 1.126 5.796 1.925 1.167 0.512 2.437 0.594 3.604 1.249 0.594 0.328 0.881 0.922 1.393 1.27 1.638 1.126 2.97 2.519 4.444 3.912 1.393 1.393 2.888 2.806 3.912 4.444 0.369 0.553 0.963 0.881 1.311 1.475l105.8 183.316c8.356 14.418 3.441 32.891-11.080 41.267zM778.24 37.547h-245.76c-22.61 0-40.96 18.33-40.96 40.919v245.76c0 22.63 18.35 40.96 40.96 40.96h245.76c22.61 0 40.919-18.33 40.919-40.96v-245.76c0-22.589-18.309-40.919-40.919-40.919z" />
<glyph unicode="&#xe63f;" d="M634.88 416.407h-81.92v81.961h-81.94v-81.961h-81.9v-81.92h81.9v-81.879h81.94v81.879h81.92v81.92zM573.44 662.167h-122.88v-61.42h122.88v61.42zM753.357 150.146h-482.714c-36.372 0-65.864 30.31-65.864 67.645v315.392c0 37.335 29.491 67.564 65.864 67.564h138.957v81.961c0 11.305 9.155 20.48 20.48 20.48h163.84c11.325 0 20.48-9.175 20.48-20.48v-81.961h138.957c36.352 0 65.843-30.228 65.843-67.564v-315.392c0-37.315-29.471-67.645-65.843-67.645z" />
<glyph unicode="&#xe640;" d="M589.804 299.875c-13.169-46.408-9.83-55.439 3.256-74.916 13.169-19.436 13.169-120.955 13.169-120.955s-11.53-28.365-3.338-43.356c8.212-14.991 21.361-37.99-1.618-66.519-22.938-28.488-31.15-37.478-54.108-37.478 18.002 12.042 9.81 34.529-14.787 34.529 0 70.431 0 313.242 0 365.711 47.575-0.020 70.513-10.506 57.426-57.016zM417.874 103.984c0 0 0 101.519 13.087 120.955 13.169 19.476 16.425 28.529 3.318 74.916-13.148 46.51 9.83 56.996 57.364 56.996 0-52.47 0-295.281 0-365.711-24.596 0-32.829-22.487-14.787-34.529-22.917 0-31.13 8.991-54.108 37.478-22.917 28.529-9.83 51.528-1.618 66.519 8.192 15.012-3.256 43.377-3.256 43.377zM512.020 826.437c-99.553 0-167.035-62.956-153.149-128.963 11.674-55.89 79.606-95.273 153.149-95.273 73.523 0 141.414 39.383 153.17 95.273 13.824 66.007-53.658 128.963-153.17 128.963zM704.389 748.531c5.898-17.797 7.455-36.659 3.461-55.747-14.991-71.455-101.786-121.876-195.809-121.876s-180.859 50.422-195.809 121.876c-4.055 19.374-2.355 38.523 3.789 56.566-6.431 40.12-47.677 92.672-66.519 111.534-20.562 20.46 13.373 49.295 33.833 28.733 17.9-17.797 61.583-71.987 85.955-72.131 34.734 24.617 82.801 40.223 138.732 40.223 56.177 0 104.305-15.77 139.059-40.571 27.771-1.782 85.524 48.189 103.485 66.13 20.48 20.48 54.395-8.335 33.915-28.815-19.005-19.005-75.899-66.437-84.091-105.923zM819.814 218.795c10.711-30.72-12.554-70.799-56.914-94.249-38.81-20.48-81.449-21.647-107.54-5.837v92.037c9.544 10.199 21.443 19.722 35.86 27.32 41.247 21.75 87.060 21.873 112.333 2.765 32.686 33.321 60.539 82.125 10.588 127.795-100.762 92.099-25.661 239.841-114.36 197.181-19.497-9.38-34.734-17.572-47.165-24.986 1.782-7.148 2.744-15.421 2.744-25.108 0-115.18-91.361-126.935-141.64-128.164 0 0 0-0.082 0-0.164-0.573 0-1.188 0.082-1.7 0.082-0.573 0-1.188-0.082-1.7-0.082 0 0.082 0 0.164 0 0.164-50.319 1.249-141.619 13.005-141.619 128.164 0 9.687 0.963 17.961 2.744 25.129-12.411 7.393-27.648 15.606-47.165 24.986-88.76 42.66-13.681-105.103-114.34-197.181-50.033-45.752-22.098-94.474 10.568-127.795 25.354 19.087 71.127 19.087 112.271-2.765 14.418-7.598 26.317-17.121 35.86-27.32v-92.037c-26.092-15.79-68.751-14.643-107.561 5.837-44.257 23.45-67.564 63.57-56.832 94.249-48.251 40.53-103.916 101.929-38.932 157.676 118.927 102.072 1.618 338.883 228.905 194.458 19.354-12.268 29.635-22.548 35.041-29.696 23.654-6.369 48.722-10.363 75.1-10.936 3.011-4.956 5.325-9.912 5.98-14.561 2.212-15.524 1.126-15.524 3.4 0 0.676 4.649 2.97 9.605 6.001 14.561 26.317 0.573 51.425 4.506 75.1 10.854 5.407 7.188 15.606 17.51 34.98 29.778 227.287 144.445 109.978-92.385 228.905-194.458 64.963-55.788 9.38-117.187-38.912-157.696z" />
<glyph unicode="&#xe641;" d="M491.52 777.94l10.568-39.547-98.898-26.522-10.65 39.608c-10.936-2.949-22.098 3.543-25.047 14.5-2.888 10.854 3.543 22.098 14.479 25.068l98.898 26.522c10.936 2.908 22.18-3.625 25.129-14.479 2.888-10.957-3.543-22.2-14.479-25.149zM420.188 608.529c33.915 0 61.42-27.505 61.42-61.42s-27.505-61.44-61.42-61.44c-33.935 0-61.42 27.505-61.42 61.44s27.484 61.42 61.42 61.42zM430.019 453.393c47.677 5.018 84.849 44.79 84.849 93.716 0 52.326-42.353 94.761-94.679 94.761-13.681 0-26.685-3.031-38.441-8.274l-2.212 8.335c-5.837 21.893 7.107 44.36 28.979 50.196l98.898 26.46c21.791 5.919 44.278-7.107 50.176-28.897l68.895-257.229-178.053-47.677-18.412 68.608zM618.721 303.193l-98.898-26.522c-21.873-5.837-44.36 7.168-50.176 28.959l-10.65 39.629 178.135 47.657 10.568-39.526c5.816-21.873-7.188-44.36-28.979-50.196zM809.349 35.11h-532.562c-22.61 0-40.94 18.33-40.94 40.94s18.33 40.96 40.94 40.96h51.22c-16.63 0-30.085 13.435-30.536 30.003-174.367 94.167-164.536 338.678 29.491 415.621-0.819-5.1-1.556-10.199-1.556-15.524 0-20.849 6.943-39.916 18.391-55.583-130.54-69.181-116.777-249.754 42.271-294.482 14.111-4.198 28.611-10.936 41.103-18.555h269.476c16.937 0 30.679-13.742 30.679-30.74s-13.742-30.74-30.679-30.74h112.66c22.61 0 40.94-18.35 40.94-40.96s-18.289-40.94-40.899-40.94z" />
</font>
</defs>
</svg>
